M48
;Layer_Color=9474304
;FILE_FORMAT=4:3
METRIC,LZ
;TYPE=PLATED
T01F00S00C0.200
T02F00S00C0.400
T03F00S00C1.000
T04F00S00C1.020
T05F00S00C1.300
T06F00S00C3.500
%
T01
X001625Y0007
X00135Y00115
X0019
X0023Y0006
X0025017Y0006721
X002675Y0006
X0067Y000675
X006925Y000125
X007375
X00775
X0076Y001
X0074
X007225
X007875
Y00075
Y000375
X0079Y00145
Y001575
Y0017
Y001825
X007875Y0035
Y003875
Y00425
Y004625
X007625Y005
X007125Y005002
X00675Y005
X006375
X006353Y0045207
X0062
X006025Y004225
X005925Y004125
X006169Y003975
X0062848Y00405
X0063Y0036902
Y00355
X0064
X006775Y0035098
Y0037
Y00405
X0069Y0041
X00705Y00405
X0072Y004125
X00705Y004306
X006875Y0043
Y0044
X00705Y0038
Y00355
X007125Y003431
X0069Y0034
X00705Y003225
X00675Y0032
X0068Y003125
X006725Y00305
X00655Y00305
X006475Y003125
Y0032
X006325Y003075
X006125
Y003
X0059903Y003025
X00575
X0057Y0030991
X005625Y00315
Y0033
X00555Y003375
X005462Y00345
X005275Y003506
X005025Y00345
Y0032104
X005075Y003075
X0049095Y0030437
X0053741Y003075
X0057255Y0034706
X005825Y003375
X006Y0033
X006525Y00385
X00755Y0037
Y003369
X007425Y003202
X0074095Y00265
X0073116Y002375
Y002225
X007075Y002225
X007073Y002475
X00705Y002825
X0068Y0028
X006675Y0025358
X0067Y00225
Y00205
Y00185
Y00165
X00679Y001525
X007031
Y001715
X0073
X007325Y001525
X0066Y0014
X0077905Y002675
X007575Y004175
X0056Y0043793
X0055Y0045
X0049875Y0045225
X00505Y0046
Y004775
X005Y005
X0047
X0042
X004375Y004775
X0043675Y004525
X004375Y00415
X00505
X005125Y0039
X00505Y0038
X005175Y003725
X0048Y003675
X004575Y003575
Y003225
X0044Y00305
X004225Y0032
X0042Y0033
X00415Y003375
X004325Y00345
X003925Y0035
Y003669
X004075
X004175Y00294
X003925Y00295
X005375Y005
X0037
X00375Y004775
X0037175Y004525
X00375Y00415
X003485Y0040725
X003275Y00405
X00276Y0040875
X0028975Y00387
X002975Y0037775
X002925Y003675
X002796Y003375
X002325
X002125
X001875
X001625
X001375
X001025
X001Y00355
X00075Y003375
Y003
X001025Y00305
X001375Y003
X001625
X001875
X002125
X002375
X002625Y003005
X0027Y002625
X0025
X0023
Y002325
X002006Y002106
X0023Y00165
Y00155
Y0013
X0027
X00275Y00155
X002675Y00165
X002825Y0018
X003175Y00215
X003575Y002625
X00355Y00295
X003275
X0035Y003185
Y003425
X00366
X0037Y00355
X00375Y003669
Y0032
X0023775Y00365
X002275Y003775
X002405Y00387
X0023Y00409
X00195Y004075
X00175Y00405
X0015Y0039
X0013043Y0041
X00105Y003975
X001276Y0037137
X0007Y0038
X000375Y003875
X0001Y0039
Y0044
Y0048121
X0003Y005
X00122
X0017
X0022235
X0027
Y004775
X002625Y0045
X002375
X0019Y0046
X0014
X001Y0047
X0007121Y0042
X000425Y0033
X00105Y0021
X002006Y003799
X0032Y004775
Y005
T02
X00325Y00025
Y0005
Y00075
Y001
X0035
Y00075
Y0005
Y00025
X00375
Y0005
Y00075
Y001
X004
Y00075
Y0005
Y00025
X00425
Y0005
Y00075
Y001
X005Y0011
X0051
X0052
X0051Y00095
X00495Y0008
X00525
X0051Y0006
X00585Y0005
Y00025
X006Y00015
X00565
X0064
X00585Y00085
X00575Y00175
Y002
Y00225
Y0025
X00555
Y00275
X00575
X006Y0025
Y00225
X006325Y002275
X0064Y0019
X006
X0055Y002
X0054925Y00175
X00525
X0052Y0016
X0051
X005
Y00175
X00475
Y002
Y00225
Y0025
Y00275
X0045
X00425
Y0025
X0045
Y00225
Y002
X00425
Y00225
Y00175
X0045
X00425Y00125
X004
X005
X0051
X0052
Y0014475
X0051Y00145
X005
X00375Y0015
Y00175
Y002
X0035
Y00175
X00325
Y0015
X0035
Y00125
X00325
X00375
Y00225
X00095Y0013
T03
X000425Y002373
Y002627
Y002881
Y003135
X00315Y003185
Y002931
Y002677
Y002423
T04
X007296Y002873
Y003127
X00755
Y002873
X007804
Y003127
T05
X001498Y0004
X001752
X002373
X002627
X004973
X005227
X006073
X006327
X006673
X006927
X006383Y0048
X005875Y00445
X005367Y0048
T06
X0005Y0005
X0075
Y004606
X0005Y0046
M30
