G04*
G04 #@! TF.GenerationSoftware,Altium Limited,Altium Designer,23.9.2 (47)*
G04*
G04 Layer_Physical_Order=2*
G04 Layer_Color=32768*
%FSLAX43Y43*%
%MOMM*%
G71*
G04*
G04 #@! TF.SameCoordinates,DD1DA4F9-BAAB-46B1-B849-2321CEA9ED03*
G04*
G04*
G04 #@! TF.FilePolarity,Negative*
G04*
G01*
G75*
%ADD105C,1.016*%
%ADD106C,2.000*%
%ADD107C,2.316*%
%ADD108C,2.016*%
%ADD109C,4.516*%
%ADD110C,2.036*%
%ADD111C,1.216*%
D105*
X-0Y2000D02*
G03*
X2000Y-0I2000J-0D01*
G01*
X78000Y0D02*
G03*
X80000Y2000I-0J2000D01*
G01*
X80000Y49000D02*
G03*
X78000Y51000I-2000J0D01*
G01*
X2000Y51000D02*
G03*
X-0Y49000I0J-2000D01*
G01*
X2000Y-0D02*
X78000Y0D01*
X80000Y2000D02*
X80000Y49000D01*
X2000Y51000D02*
X78000Y51000D01*
X-0Y49000D02*
X0Y2000D01*
D106*
X29000Y0D02*
Y16500D01*
X40250Y27750D01*
X21336D02*
X40250D01*
X21250Y27664D02*
X21336Y27750D01*
X21250Y0D02*
Y27750D01*
X0D02*
X21250D01*
D107*
X17520Y4000D02*
D03*
X14980D02*
D03*
X63270D02*
D03*
X23730D02*
D03*
X26270D02*
D03*
X49730D02*
D03*
X52270D02*
D03*
X69270D02*
D03*
X53670Y48000D02*
D03*
X63830D02*
D03*
D108*
X4250Y23730D02*
D03*
Y28810D02*
D03*
X31500Y29310D02*
D03*
Y24230D02*
D03*
D109*
X5000Y46000D02*
D03*
X75000Y46060D02*
D03*
Y5000D02*
D03*
X5000D02*
D03*
D110*
X72960Y28730D02*
D03*
Y31270D02*
D03*
X75500Y28730D02*
D03*
X78040D02*
D03*
X75500Y31270D02*
D03*
D111*
X34850Y40725D02*
D03*
X10000Y35500D02*
D03*
X69000Y34000D02*
D03*
Y41000D02*
D03*
X51250Y39000D02*
D03*
X17500Y40500D02*
D03*
X15000Y39000D02*
D03*
X55500Y33750D02*
D03*
X56250Y33000D02*
D03*
X58250Y33750D02*
D03*
X42000Y33000D02*
D03*
X41500Y33750D02*
D03*
X70500Y35500D02*
D03*
Y38000D02*
D03*
X22750Y37750D02*
D03*
X29750Y37775D02*
D03*
X56250Y31500D02*
D03*
X57000Y30991D02*
D03*
X61250Y30750D02*
D03*
Y30000D02*
D03*
X63250Y30750D02*
D03*
X50750D02*
D03*
X53741D02*
D03*
X66000Y14000D02*
D03*
X68750Y44000D02*
D03*
X37000Y35500D02*
D03*
X27500Y15500D02*
D03*
X23000D02*
D03*
X20060Y21060D02*
D03*
X10500Y21000D02*
D03*
X55000Y45000D02*
D03*
X50500Y46000D02*
D03*
X13500Y11500D02*
D03*
X19000D02*
D03*
X60000Y33000D02*
D03*
X65500Y30500D02*
D03*
X63000Y35500D02*
D03*
X64000D02*
D03*
X68000Y31250D02*
D03*
X64750D02*
D03*
Y32000D02*
D03*
X68000Y28000D02*
D03*
X70500Y28250D02*
D03*
M02*
