G04*
G04 #@! TF.GenerationSoftware,Altium Limited,Altium Designer,23.9.2 (47)*
G04*
G04 Layer_Physical_Order=4*
G04 Layer_Color=16711680*
%FSLAX43Y43*%
%MOMM*%
G71*
G04*
G04 #@! TF.SameCoordinates,DD1DA4F9-BAAB-46B1-B849-2321CEA9ED03*
G04*
G04*
G04 #@! TF.FilePolarity,Positive*
G04*
G01*
G75*
%ADD20C,1.000*%
%ADD86C,6.000*%
%ADD90C,0.355*%
%ADD91C,0.254*%
%ADD93C,0.500*%
%ADD95C,1.950*%
%ADD96R,1.950X1.950*%
%ADD97C,1.508*%
%ADD98R,1.508X1.508*%
%ADD99C,2.000*%
%ADD100R,1.500X1.500*%
%ADD101C,1.500*%
%ADD102C,0.460*%
%ADD103C,0.500*%
%ADD104C,0.750*%
G36*
X38500Y26500D02*
X37500D01*
X27500Y16500D01*
Y15882D01*
X27424D01*
X27284Y15824D01*
X27244Y15784D01*
X23256D01*
X23216Y15824D01*
X23076Y15882D01*
X22924D01*
X22784Y15824D01*
X22676Y15716D01*
X22618Y15576D01*
X22500Y15598D01*
Y27000D01*
X38500D01*
Y26500D01*
D02*
G37*
G36*
X77408Y50592D02*
X77408Y50592D01*
X79250Y48750D01*
Y2250D01*
X77750Y750D01*
X29750D01*
Y16250D01*
X32750Y19250D01*
X42535Y29035D01*
X42785Y28785D01*
X42785Y28785D01*
X42921Y28680D01*
X43080Y28615D01*
X43250Y28592D01*
X58978D01*
X65342Y22228D01*
Y14000D01*
X65365Y13830D01*
X65430Y13671D01*
X65535Y13535D01*
X65671Y13430D01*
X65830Y13365D01*
X66000Y13342D01*
X66170Y13365D01*
X66329Y13430D01*
X66465Y13535D01*
X66570Y13671D01*
X66635Y13830D01*
X66658Y14000D01*
Y22500D01*
X66658Y22500D01*
X66635Y22670D01*
X66570Y22829D01*
X66465Y22965D01*
X66465Y22965D01*
X59715Y29715D01*
X59579Y29820D01*
X59420Y29885D01*
X59250Y29908D01*
X59250Y29908D01*
X43522D01*
X37465Y35965D01*
X37329Y36070D01*
X37170Y36135D01*
X37000Y36158D01*
X36875Y36141D01*
X36750Y36158D01*
X10000D01*
X9830Y36135D01*
X9671Y36070D01*
X9535Y35965D01*
X9430Y35829D01*
X9365Y35670D01*
X9342Y35500D01*
X9365Y35330D01*
X9430Y35171D01*
X9535Y35035D01*
X9671Y34930D01*
X9830Y34865D01*
X10000Y34842D01*
X36728D01*
X42203Y29367D01*
X42154Y29250D01*
X32466D01*
X32414Y29310D01*
X32383Y29547D01*
X32291Y29767D01*
X32146Y29956D01*
X31957Y30101D01*
X31737Y30193D01*
X31500Y30224D01*
X31263Y30193D01*
X31043Y30101D01*
X30854Y29956D01*
X30709Y29767D01*
X30617Y29547D01*
X30586Y29310D01*
X30534Y29250D01*
X5048D01*
X5041Y29267D01*
X4896Y29456D01*
X4707Y29601D01*
X4487Y29693D01*
X4250Y29724D01*
X4013Y29693D01*
X3793Y29601D01*
X3604Y29456D01*
X3459Y29267D01*
X3452Y29250D01*
X408D01*
X408Y48908D01*
X2092Y50592D01*
X77408Y50592D01*
D02*
G37*
G36*
X22676Y15284D02*
X22784Y15176D01*
X22924Y15118D01*
X23076D01*
X23216Y15176D01*
X23256Y15216D01*
X27244D01*
X27284Y15176D01*
X27424Y15118D01*
X27500D01*
Y5500D01*
X22500D01*
Y15402D01*
X22618Y15424D01*
X22676Y15284D01*
D02*
G37*
G36*
X20000Y21442D02*
X19984D01*
X19906Y21410D01*
X10500D01*
X10343Y21379D01*
X10210Y21290D01*
X10121Y21157D01*
X10090Y21000D01*
X10121Y20843D01*
X10210Y20710D01*
X10343Y20621D01*
X10500Y20590D01*
X20000D01*
Y19500D01*
Y5500D01*
X10500Y5500D01*
X500Y15500D01*
Y26750D01*
X20000D01*
Y21442D01*
D02*
G37*
%LPC*%
G36*
X31619Y25136D02*
X31381D01*
X31150Y25074D01*
X30944Y24955D01*
X30775Y24786D01*
X30656Y24580D01*
X30594Y24349D01*
Y24111D01*
X30656Y23880D01*
X30775Y23674D01*
X30944Y23505D01*
X31150Y23386D01*
X31381Y23324D01*
X31619D01*
X31850Y23386D01*
X32056Y23505D01*
X32225Y23674D01*
X32344Y23880D01*
X32406Y24111D01*
Y24349D01*
X32344Y24580D01*
X32225Y24786D01*
X32056Y24955D01*
X31850Y25074D01*
X31619Y25136D01*
D02*
G37*
G36*
X63830Y49162D02*
X63529Y49122D01*
X63249Y49006D01*
X63008Y48822D01*
X62824Y48581D01*
X62708Y48301D01*
X62668Y48000D01*
X62708Y47699D01*
X62824Y47419D01*
X63008Y47178D01*
X63249Y46994D01*
X63529Y46878D01*
X63830Y46838D01*
X64131Y46878D01*
X64411Y46994D01*
X64652Y47178D01*
X64836Y47419D01*
X64952Y47699D01*
X64992Y48000D01*
X64952Y48301D01*
X64836Y48581D01*
X64652Y48822D01*
X64411Y49006D01*
X64131Y49122D01*
X63830Y49162D01*
D02*
G37*
G36*
X53670D02*
X53369Y49122D01*
X53089Y49006D01*
X52848Y48822D01*
X52664Y48581D01*
X52548Y48301D01*
X52508Y48000D01*
X52548Y47699D01*
X52664Y47419D01*
X52848Y47178D01*
X53089Y46994D01*
X53369Y46878D01*
X53670Y46838D01*
X53971Y46878D01*
X54251Y46994D01*
X54492Y47178D01*
X54676Y47419D01*
X54792Y47699D01*
X54832Y48000D01*
X54792Y48301D01*
X54676Y48581D01*
X54492Y48822D01*
X54251Y49006D01*
X53971Y49122D01*
X53670Y49162D01*
D02*
G37*
G36*
X75000Y49222D02*
X74505Y49183D01*
X74023Y49067D01*
X73565Y48877D01*
X73142Y48618D01*
X72764Y48296D01*
X72442Y47918D01*
X72183Y47495D01*
X71993Y47037D01*
X71877Y46555D01*
X71838Y46060D01*
X71877Y45565D01*
X71993Y45083D01*
X72183Y44625D01*
X72442Y44202D01*
X72764Y43824D01*
X73142Y43502D01*
X73565Y43243D01*
X74023Y43053D01*
X74505Y42937D01*
X75000Y42898D01*
X75495Y42937D01*
X75977Y43053D01*
X76435Y43243D01*
X76858Y43502D01*
X77236Y43824D01*
X77558Y44202D01*
X77817Y44625D01*
X78007Y45083D01*
X78123Y45565D01*
X78162Y46060D01*
X78123Y46555D01*
X78007Y47037D01*
X77817Y47495D01*
X77558Y47918D01*
X77236Y48296D01*
X76858Y48618D01*
X76435Y48877D01*
X75977Y49067D01*
X75495Y49183D01*
X75000Y49222D01*
D02*
G37*
G36*
X5000Y49162D02*
X4505Y49123D01*
X4023Y49007D01*
X3565Y48817D01*
X3142Y48558D01*
X2764Y48236D01*
X2442Y47858D01*
X2183Y47435D01*
X1993Y46977D01*
X1877Y46495D01*
X1838Y46000D01*
X1877Y45505D01*
X1993Y45023D01*
X2183Y44565D01*
X2442Y44142D01*
X2764Y43764D01*
X3142Y43442D01*
X3565Y43183D01*
X4023Y42993D01*
X4505Y42877D01*
X5000Y42838D01*
X5495Y42877D01*
X5977Y42993D01*
X6435Y43183D01*
X6858Y43442D01*
X7236Y43764D01*
X7558Y44142D01*
X7817Y44565D01*
X8007Y45023D01*
X8123Y45505D01*
X8162Y46000D01*
X8123Y46495D01*
X8007Y46977D01*
X7817Y47435D01*
X7558Y47858D01*
X7236Y48236D01*
X6858Y48558D01*
X6435Y48817D01*
X5977Y49007D01*
X5495Y49123D01*
X5000Y49162D01*
D02*
G37*
G36*
X33575Y42691D02*
X19000D01*
X18821Y42668D01*
X18654Y42599D01*
X18511Y42489D01*
X17194Y41172D01*
X17128Y41145D01*
X16974Y41026D01*
X16855Y40872D01*
X16781Y40693D01*
X16756Y40500D01*
X16781Y40307D01*
X16855Y40128D01*
X16974Y39974D01*
X17128Y39855D01*
X17307Y39781D01*
X17500Y39756D01*
X17693Y39781D01*
X17872Y39855D01*
X18026Y39974D01*
X18145Y40128D01*
X18172Y40194D01*
X19286Y41309D01*
X33289D01*
X34178Y40419D01*
X34205Y40353D01*
X34324Y40199D01*
X34478Y40080D01*
X34657Y40006D01*
X34850Y39981D01*
X35043Y40006D01*
X35222Y40080D01*
X35376Y40199D01*
X35495Y40353D01*
X35569Y40532D01*
X35594Y40725D01*
X35569Y40918D01*
X35495Y41097D01*
X35376Y41251D01*
X35222Y41370D01*
X35156Y41397D01*
X34064Y42489D01*
X33921Y42599D01*
X33754Y42668D01*
X33575Y42691D01*
D02*
G37*
G36*
X31876Y40441D02*
X20000D01*
X19821Y40418D01*
X19654Y40349D01*
X19511Y40239D01*
X18289Y39016D01*
X15972D01*
X15665Y39323D01*
X15645Y39372D01*
X15526Y39526D01*
X15372Y39645D01*
X15193Y39719D01*
X15000Y39744D01*
X14807Y39719D01*
X14628Y39645D01*
X14474Y39526D01*
X14355Y39372D01*
X14281Y39193D01*
X14256Y39000D01*
X14281Y38807D01*
X14355Y38628D01*
X14474Y38474D01*
X14628Y38355D01*
X14712Y38320D01*
X15197Y37836D01*
X15340Y37726D01*
X15507Y37657D01*
X15685Y37634D01*
X18575D01*
X18754Y37657D01*
X18921Y37726D01*
X19064Y37836D01*
X20286Y39059D01*
X31590D01*
X32137Y38511D01*
X32281Y38401D01*
X32447Y38332D01*
X32626Y38309D01*
X50991D01*
X51057Y38281D01*
X51250Y38256D01*
X51443Y38281D01*
X51622Y38355D01*
X51776Y38474D01*
X51895Y38628D01*
X51969Y38807D01*
X51994Y39000D01*
X51969Y39193D01*
X51895Y39372D01*
X51776Y39526D01*
X51622Y39645D01*
X51443Y39719D01*
X51250Y39744D01*
X51057Y39719D01*
X50991Y39691D01*
X32913D01*
X32365Y40239D01*
X32222Y40349D01*
X32055Y40418D01*
X31876Y40441D01*
D02*
G37*
G36*
X29750Y38433D02*
X29580Y38410D01*
X29421Y38345D01*
X29406Y38333D01*
X23047D01*
X22920Y38385D01*
X22750Y38408D01*
X22580Y38385D01*
X22421Y38320D01*
X22285Y38215D01*
X22180Y38079D01*
X22115Y37920D01*
X22092Y37750D01*
X22115Y37580D01*
X22180Y37421D01*
X22285Y37285D01*
X22360Y37210D01*
X22360Y37210D01*
X22496Y37105D01*
X22655Y37040D01*
X22825Y37017D01*
X29650D01*
X29650Y37017D01*
X29820Y37040D01*
X29979Y37105D01*
X30115Y37210D01*
X30215Y37310D01*
X30320Y37446D01*
X30385Y37605D01*
X30408Y37775D01*
X30385Y37945D01*
X30320Y38104D01*
X30215Y38240D01*
X30079Y38345D01*
X29920Y38410D01*
X29750Y38433D01*
D02*
G37*
G36*
X70500Y38389D02*
X70351Y38360D01*
X70225Y38275D01*
X70140Y38149D01*
X70111Y38000D01*
X70140Y37851D01*
X70216Y37738D01*
Y35762D01*
X70140Y35649D01*
X70111Y35500D01*
X70140Y35351D01*
X70225Y35225D01*
X70351Y35140D01*
X70500Y35111D01*
X70649Y35140D01*
X70775Y35225D01*
X70860Y35351D01*
X70889Y35500D01*
X70860Y35649D01*
X70784Y35762D01*
Y37738D01*
X70860Y37851D01*
X70889Y38000D01*
X70860Y38149D01*
X70775Y38275D01*
X70649Y38360D01*
X70500Y38389D01*
D02*
G37*
G36*
X50500Y46389D02*
X50351Y46360D01*
X50225Y46275D01*
X50140Y46149D01*
X50111Y46000D01*
X50140Y45851D01*
X50225Y45725D01*
X50351Y45640D01*
X50484Y45614D01*
X53716Y42382D01*
Y36250D01*
X53737Y36141D01*
X53799Y36049D01*
X55598Y34249D01*
X55536Y34132D01*
X55500Y34139D01*
X55351Y34110D01*
X55238Y34034D01*
X41762D01*
X41649Y34110D01*
X41500Y34139D01*
X41351Y34110D01*
X41225Y34025D01*
X41140Y33899D01*
X41111Y33750D01*
X41140Y33601D01*
X41225Y33475D01*
X41351Y33390D01*
X41500Y33361D01*
X41649Y33390D01*
X41667Y33402D01*
X41679Y33398D01*
X41696Y33353D01*
X41709Y33252D01*
X41640Y33149D01*
X41611Y33000D01*
X41640Y32851D01*
X41725Y32725D01*
X41851Y32640D01*
X42000Y32611D01*
X42149Y32640D01*
X42262Y32716D01*
X55988D01*
X56101Y32640D01*
X56250Y32611D01*
X56399Y32640D01*
X56525Y32725D01*
X56610Y32851D01*
X56639Y33000D01*
X56632Y33036D01*
X56749Y33098D01*
X58549Y31299D01*
X58641Y31237D01*
X58750Y31216D01*
X61031D01*
X61069Y31089D01*
X60975Y31025D01*
X60890Y30899D01*
X60861Y30750D01*
X60890Y30601D01*
X60975Y30475D01*
X61009Y30451D01*
Y30299D01*
X60975Y30275D01*
X60890Y30149D01*
X60861Y30000D01*
X60890Y29851D01*
X60975Y29725D01*
X61101Y29640D01*
X61250Y29611D01*
X61399Y29640D01*
X61512Y29716D01*
X65000D01*
X65109Y29737D01*
X65201Y29799D01*
X65516Y30114D01*
X65649Y30140D01*
X65775Y30225D01*
X65860Y30351D01*
X65889Y30500D01*
X65860Y30649D01*
X65775Y30775D01*
X65649Y30860D01*
X65500Y30889D01*
X65351Y30860D01*
X65225Y30775D01*
X65140Y30649D01*
X65114Y30516D01*
X64882Y30284D01*
X63469D01*
X63431Y30411D01*
X63525Y30475D01*
X63610Y30601D01*
X63639Y30750D01*
X63610Y30899D01*
X63525Y31025D01*
X63431Y31089D01*
X63469Y31216D01*
X64367D01*
X64390Y31101D01*
X64475Y30975D01*
X64601Y30890D01*
X64750Y30861D01*
X64899Y30890D01*
X65025Y30975D01*
X65110Y31101D01*
X65139Y31250D01*
X65110Y31399D01*
X65025Y31525D01*
X64991Y31549D01*
Y31701D01*
X65025Y31725D01*
X65110Y31851D01*
X65139Y32000D01*
X65110Y32149D01*
X65025Y32275D01*
X64899Y32360D01*
X64750Y32389D01*
X64601Y32360D01*
X64488Y32284D01*
X59118D01*
X58152Y33251D01*
X58214Y33368D01*
X58250Y33361D01*
X58399Y33390D01*
X58512Y33466D01*
X59781D01*
X59819Y33339D01*
X59725Y33275D01*
X59640Y33149D01*
X59611Y33000D01*
X59640Y32851D01*
X59725Y32725D01*
X59851Y32640D01*
X60000Y32611D01*
X60149Y32640D01*
X60262Y32716D01*
X61500D01*
X61609Y32737D01*
X61701Y32799D01*
X64016Y35114D01*
X64149Y35140D01*
X64275Y35225D01*
X64360Y35351D01*
X64389Y35500D01*
X64360Y35649D01*
X64275Y35775D01*
X64149Y35860D01*
X64000Y35889D01*
X63851Y35860D01*
X63725Y35775D01*
X63640Y35649D01*
X63614Y35516D01*
X63499Y35402D01*
X63382Y35464D01*
X63389Y35500D01*
X63360Y35649D01*
X63275Y35775D01*
X63149Y35860D01*
X63000Y35889D01*
X62851Y35860D01*
X62725Y35775D01*
X62640Y35649D01*
X62614Y35516D01*
X61132Y34034D01*
X58512D01*
X58399Y34110D01*
X58250Y34139D01*
X58101Y34110D01*
X57975Y34025D01*
X57890Y33899D01*
X57861Y33750D01*
X57868Y33714D01*
X57751Y33652D01*
X55284Y36118D01*
Y44738D01*
X55360Y44851D01*
X55389Y45000D01*
X55360Y45149D01*
X55275Y45275D01*
X55149Y45360D01*
X55000Y45389D01*
X54851Y45360D01*
X54725Y45275D01*
X54640Y45149D01*
X54611Y45000D01*
X54640Y44851D01*
X54716Y44738D01*
Y36116D01*
X54589Y36064D01*
X54284Y36368D01*
Y42500D01*
X54263Y42609D01*
X54201Y42701D01*
X50886Y46016D01*
X50860Y46149D01*
X50775Y46275D01*
X50649Y46360D01*
X50500Y46389D01*
D02*
G37*
G36*
X69000Y41389D02*
X68851Y41360D01*
X68725Y41275D01*
X68640Y41149D01*
X68611Y41000D01*
X68640Y40851D01*
X68716Y40738D01*
Y34262D01*
X68640Y34149D01*
X68611Y34000D01*
X68640Y33851D01*
X68725Y33725D01*
X68851Y33640D01*
X69000Y33611D01*
X69149Y33640D01*
X69275Y33725D01*
X69360Y33851D01*
X69389Y34000D01*
X69360Y34149D01*
X69284Y34262D01*
Y40738D01*
X69360Y40851D01*
X69389Y41000D01*
X69360Y41149D01*
X69275Y41275D01*
X69149Y41360D01*
X69000Y41389D01*
D02*
G37*
G36*
X56250Y31889D02*
X56101Y31860D01*
X55988Y31784D01*
X53000D01*
X52891Y31763D01*
X52799Y31701D01*
X52132Y31034D01*
X51012D01*
X50899Y31110D01*
X50750Y31139D01*
X50601Y31110D01*
X50475Y31025D01*
X50390Y30899D01*
X50361Y30750D01*
X50390Y30601D01*
X50475Y30475D01*
X50601Y30390D01*
X50750Y30361D01*
X50899Y30390D01*
X51012Y30466D01*
X52250D01*
X52359Y30487D01*
X52451Y30549D01*
X53118Y31216D01*
X53522D01*
X53560Y31089D01*
X53466Y31025D01*
X53381Y30899D01*
X53352Y30750D01*
X53381Y30601D01*
X53466Y30475D01*
X53592Y30390D01*
X53741Y30361D01*
X53890Y30390D01*
X54016Y30475D01*
X54101Y30601D01*
X54122Y30707D01*
X56738D01*
X56851Y30631D01*
X57000Y30602D01*
X57149Y30631D01*
X57275Y30716D01*
X57360Y30842D01*
X57389Y30991D01*
X57360Y31140D01*
X57275Y31266D01*
X57149Y31351D01*
X57000Y31380D01*
X56851Y31351D01*
X56811Y31324D01*
X56720Y31342D01*
X56634Y31471D01*
X56639Y31500D01*
X56610Y31649D01*
X56525Y31775D01*
X56399Y31860D01*
X56250Y31889D01*
D02*
G37*
G36*
X75500Y32180D02*
X75265Y32149D01*
X75045Y32058D01*
X74857Y31913D01*
X74712Y31725D01*
X74621Y31505D01*
X74590Y31270D01*
X74621Y31035D01*
X74712Y30815D01*
X74857Y30627D01*
X75045Y30482D01*
X75265Y30391D01*
X75500Y30360D01*
X75735Y30391D01*
X75955Y30482D01*
X76143Y30627D01*
X76288Y30815D01*
X76379Y31035D01*
X76410Y31270D01*
X76379Y31505D01*
X76288Y31725D01*
X76143Y31913D01*
X75955Y32058D01*
X75735Y32149D01*
X75500Y32180D01*
D02*
G37*
G36*
X72960D02*
X72725Y32149D01*
X72505Y32058D01*
X72317Y31913D01*
X72172Y31725D01*
X72081Y31505D01*
X72050Y31270D01*
X72081Y31035D01*
X72172Y30815D01*
X72317Y30627D01*
X72505Y30482D01*
X72725Y30391D01*
X72960Y30360D01*
X73195Y30391D01*
X73415Y30482D01*
X73603Y30627D01*
X73748Y30815D01*
X73839Y31035D01*
X73870Y31270D01*
X73839Y31505D01*
X73748Y31725D01*
X73603Y31913D01*
X73415Y32058D01*
X73195Y32149D01*
X72960Y32180D01*
D02*
G37*
G36*
X70750Y44410D02*
X68750D01*
X68593Y44379D01*
X68460Y44290D01*
X68371Y44157D01*
X68340Y44000D01*
X68371Y43843D01*
X68460Y43710D01*
X68593Y43621D01*
X68750Y43590D01*
X70580D01*
X72590Y41580D01*
Y34420D01*
X71210Y33040D01*
X71121Y32907D01*
X71090Y32750D01*
Y30190D01*
X71121Y30033D01*
X71210Y29900D01*
X72058Y29052D01*
Y27828D01*
X73862D01*
Y29632D01*
X72638D01*
X71910Y30360D01*
Y32580D01*
X73290Y33960D01*
X73379Y34093D01*
X73410Y34250D01*
Y41750D01*
X73379Y41907D01*
X73290Y42040D01*
X71040Y44290D01*
X70907Y44379D01*
X70750Y44410D01*
D02*
G37*
G36*
X78040Y29640D02*
X77805Y29609D01*
X77585Y29518D01*
X77397Y29373D01*
X77252Y29185D01*
X77161Y28965D01*
X77130Y28730D01*
X77161Y28495D01*
X77252Y28275D01*
X77397Y28087D01*
X77585Y27942D01*
X77805Y27851D01*
X78040Y27820D01*
X78275Y27851D01*
X78495Y27942D01*
X78683Y28087D01*
X78828Y28275D01*
X78919Y28495D01*
X78950Y28730D01*
X78919Y28965D01*
X78828Y29185D01*
X78683Y29373D01*
X78495Y29518D01*
X78275Y29609D01*
X78040Y29640D01*
D02*
G37*
G36*
X68000Y31660D02*
X67843Y31629D01*
X67710Y31540D01*
X67621Y31407D01*
X67590Y31250D01*
Y28000D01*
X67621Y27843D01*
X67710Y27710D01*
X67843Y27621D01*
X68000Y27590D01*
X68157Y27621D01*
X68290Y27710D01*
X68379Y27843D01*
X68410Y28000D01*
Y31250D01*
X68379Y31407D01*
X68290Y31540D01*
X68157Y31629D01*
X68000Y31660D01*
D02*
G37*
G36*
X75500Y29640D02*
X75265Y29609D01*
X75045Y29518D01*
X74857Y29373D01*
X74712Y29185D01*
X74621Y28965D01*
X74590Y28730D01*
X74621Y28495D01*
X74692Y28324D01*
X73902Y27534D01*
X71618D01*
X70886Y28266D01*
X70860Y28399D01*
X70775Y28525D01*
X70649Y28610D01*
X70500Y28639D01*
X70351Y28610D01*
X70225Y28525D01*
X70140Y28399D01*
X70111Y28250D01*
X70140Y28101D01*
X70225Y27975D01*
X70351Y27890D01*
X70484Y27864D01*
X71299Y27049D01*
X71391Y26987D01*
X71500Y26966D01*
X74020D01*
X74129Y26987D01*
X74221Y27049D01*
X75094Y27922D01*
X75265Y27851D01*
X75500Y27820D01*
X75735Y27851D01*
X75955Y27942D01*
X76143Y28087D01*
X76288Y28275D01*
X76379Y28495D01*
X76410Y28730D01*
X76379Y28965D01*
X76288Y29185D01*
X76143Y29373D01*
X75955Y29518D01*
X75735Y29609D01*
X75500Y29640D01*
D02*
G37*
G36*
X50857Y5127D02*
X48603D01*
Y2873D01*
X50857D01*
Y5127D01*
D02*
G37*
G36*
X69270Y5137D02*
X68976Y5098D01*
X68702Y4984D01*
X68466Y4804D01*
X68286Y4568D01*
X68172Y4294D01*
X68133Y4000D01*
X68172Y3706D01*
X68286Y3432D01*
X68466Y3196D01*
X68702Y3016D01*
X68976Y2902D01*
X69270Y2863D01*
X69564Y2902D01*
X69838Y3016D01*
X70074Y3196D01*
X70254Y3432D01*
X70368Y3706D01*
X70407Y4000D01*
X70368Y4294D01*
X70254Y4568D01*
X70074Y4804D01*
X69838Y4984D01*
X69564Y5098D01*
X69270Y5137D01*
D02*
G37*
G36*
X63270D02*
X62976Y5098D01*
X62702Y4984D01*
X62466Y4804D01*
X62286Y4568D01*
X62172Y4294D01*
X62133Y4000D01*
X62172Y3706D01*
X62286Y3432D01*
X62466Y3196D01*
X62702Y3016D01*
X62976Y2902D01*
X63270Y2863D01*
X63564Y2902D01*
X63838Y3016D01*
X64074Y3196D01*
X64254Y3432D01*
X64368Y3706D01*
X64407Y4000D01*
X64368Y4294D01*
X64254Y4568D01*
X64074Y4804D01*
X63838Y4984D01*
X63564Y5098D01*
X63270Y5137D01*
D02*
G37*
G36*
X52270D02*
X51976Y5098D01*
X51702Y4984D01*
X51466Y4804D01*
X51286Y4568D01*
X51172Y4294D01*
X51133Y4000D01*
X51172Y3706D01*
X51286Y3432D01*
X51466Y3196D01*
X51702Y3016D01*
X51976Y2902D01*
X52270Y2863D01*
X52564Y2902D01*
X52838Y3016D01*
X53074Y3196D01*
X53254Y3432D01*
X53368Y3706D01*
X53407Y4000D01*
X53368Y4294D01*
X53254Y4568D01*
X53074Y4804D01*
X52838Y4984D01*
X52564Y5098D01*
X52270Y5137D01*
D02*
G37*
G36*
X75000Y8162D02*
X74505Y8123D01*
X74023Y8007D01*
X73565Y7817D01*
X73142Y7558D01*
X72764Y7236D01*
X72442Y6858D01*
X72183Y6435D01*
X71993Y5977D01*
X71877Y5495D01*
X71838Y5000D01*
X71877Y4505D01*
X71993Y4023D01*
X72183Y3565D01*
X72442Y3142D01*
X72764Y2764D01*
X73142Y2442D01*
X73565Y2183D01*
X74023Y1993D01*
X74505Y1877D01*
X75000Y1838D01*
X75495Y1877D01*
X75977Y1993D01*
X76435Y2183D01*
X76858Y2442D01*
X77236Y2764D01*
X77558Y3142D01*
X77817Y3565D01*
X78007Y4023D01*
X78123Y4505D01*
X78162Y5000D01*
X78123Y5495D01*
X78007Y5977D01*
X77817Y6435D01*
X77558Y6858D01*
X77236Y7236D01*
X76858Y7558D01*
X76435Y7817D01*
X75977Y8007D01*
X75495Y8123D01*
X75000Y8162D01*
D02*
G37*
%LPD*%
G36*
X55263Y33411D02*
X55208Y33284D01*
X42288D01*
X42237Y33339D01*
X42292Y33466D01*
X55212D01*
X55263Y33411D01*
D02*
G37*
%LPC*%
G36*
X4369Y24636D02*
X4131D01*
X3900Y24574D01*
X3694Y24455D01*
X3525Y24286D01*
X3406Y24080D01*
X3344Y23849D01*
Y23611D01*
X3406Y23380D01*
X3525Y23174D01*
X3694Y23005D01*
X3900Y22886D01*
X4131Y22824D01*
X4369D01*
X4600Y22886D01*
X4806Y23005D01*
X4975Y23174D01*
X5094Y23380D01*
X5156Y23611D01*
Y23849D01*
X5094Y24080D01*
X4975Y24286D01*
X4806Y24455D01*
X4600Y24574D01*
X4369Y24636D01*
D02*
G37*
G36*
X19076Y11882D02*
X18924D01*
X18784Y11824D01*
X18744Y11784D01*
X13756D01*
X13716Y11824D01*
X13576Y11882D01*
X13424D01*
X13284Y11824D01*
X13176Y11716D01*
X13118Y11576D01*
Y11424D01*
X13176Y11284D01*
X13284Y11176D01*
X13424Y11118D01*
X13576D01*
X13716Y11176D01*
X13756Y11216D01*
X18744D01*
X18784Y11176D01*
X18924Y11118D01*
X19076D01*
X19216Y11176D01*
X19324Y11284D01*
X19382Y11424D01*
Y11576D01*
X19324Y11716D01*
X19216Y11824D01*
X19076Y11882D01*
D02*
G37*
%LPD*%
D20*
X29650Y37675D02*
X29750Y37775D01*
X22825Y37675D02*
X29650D01*
X22750Y37750D02*
X22825Y37675D01*
X10000Y35500D02*
X36750D01*
X37000D02*
X43250Y29250D01*
X59250D01*
X66000Y22500D01*
Y14000D02*
Y22500D01*
D86*
X5000Y46000D02*
D03*
X75000Y46060D02*
D03*
Y5000D02*
D03*
X5000D02*
D03*
D90*
X19000Y42000D02*
X33575D01*
X34850Y40725D01*
X18575Y38325D02*
X20000Y39750D01*
X15685Y38325D02*
X18575D01*
X15010Y39000D02*
X15685Y38325D01*
X15000Y39000D02*
X15010D01*
X32626D02*
X51250D01*
X31876Y39750D02*
X32626Y39000D01*
X20000Y39750D02*
X31876D01*
X17500Y40500D02*
X19000Y42000D01*
D91*
X54000Y36250D02*
Y42500D01*
X50500Y46000D02*
X54000Y42500D01*
X69000Y34000D02*
Y41000D01*
X41500Y33750D02*
X55500D01*
X42000Y33000D02*
X56250D01*
X58750Y31500D02*
X64498D01*
X54000Y36250D02*
X58750Y31500D01*
X55000Y36000D02*
Y45000D01*
X59000Y32000D02*
X64750D01*
X55000Y36000D02*
X59000Y32000D01*
X58250Y33750D02*
X61250D01*
X70500Y35500D02*
Y38000D01*
X71500Y27250D02*
X74020D01*
X70500Y28250D02*
X71500Y27250D01*
X70500Y28250D02*
Y28250D01*
X61250Y33750D02*
X63000Y35500D01*
X53752Y30750D02*
X53993Y30991D01*
X57000D01*
X53741Y30750D02*
X53752D01*
X53000Y31500D02*
X56250D01*
X52250Y30750D02*
X53000Y31500D01*
X61250Y30750D02*
X63250D01*
X61250Y30000D02*
X65000D01*
X65500Y30500D01*
X64748Y31250D02*
X64750D01*
X64498Y31500D02*
X64748Y31250D01*
X50750Y30750D02*
X52250D01*
X23000Y15500D02*
X27500D01*
X13500Y11500D02*
X19000D01*
X60000Y33000D02*
X61500D01*
X64000Y35500D01*
X74020Y27250D02*
X75500Y28730D01*
D93*
X70750Y44000D02*
X73000Y41750D01*
Y34250D02*
Y41750D01*
X71500Y32750D02*
X73000Y34250D01*
X71500Y30190D02*
Y32750D01*
Y30190D02*
X72960Y28730D01*
X10500Y21000D02*
X20000D01*
X68750Y44000D02*
X70750D01*
X68000Y28000D02*
Y31250D01*
D95*
X17520Y4000D02*
D03*
X63270D02*
D03*
X26270D02*
D03*
X52270D02*
D03*
X69270D02*
D03*
D96*
X14980D02*
D03*
X60730D02*
D03*
X23730D02*
D03*
X49730D02*
D03*
X66730D02*
D03*
D97*
X4250Y26270D02*
D03*
Y23730D02*
D03*
Y28810D02*
D03*
X31500Y29310D02*
D03*
Y24230D02*
D03*
Y26770D02*
D03*
D98*
X4250Y31350D02*
D03*
X31500Y31850D02*
D03*
D99*
X53670Y48000D02*
D03*
X63830D02*
D03*
X58750Y44500D02*
D03*
D100*
X72960Y28730D02*
D03*
D101*
Y31270D02*
D03*
X75500Y28730D02*
D03*
X78040D02*
D03*
X75500Y31270D02*
D03*
X78040D02*
D03*
D102*
X34850Y40725D02*
D03*
X10000Y35500D02*
D03*
X69000Y34000D02*
D03*
Y41000D02*
D03*
X51250Y39000D02*
D03*
X17500Y40500D02*
D03*
X15000Y39000D02*
D03*
X55500Y33750D02*
D03*
X56250Y33000D02*
D03*
X58250Y33750D02*
D03*
X42000Y33000D02*
D03*
X41500Y33750D02*
D03*
X70500Y35500D02*
D03*
Y38000D02*
D03*
X22750Y37750D02*
D03*
X29750Y37775D02*
D03*
X56250Y31500D02*
D03*
X57000Y30991D02*
D03*
X61250Y30750D02*
D03*
Y30000D02*
D03*
X63250Y30750D02*
D03*
X50750D02*
D03*
X53741D02*
D03*
X70750Y22250D02*
D03*
X70310Y17150D02*
D03*
X73000D02*
D03*
X73250Y15250D02*
D03*
X70310D02*
D03*
X67900D02*
D03*
X67000Y16500D02*
D03*
Y18500D02*
D03*
Y20500D02*
D03*
Y22500D02*
D03*
X66000Y14000D02*
D03*
X68750Y44000D02*
D03*
X37000Y35500D02*
D03*
X27500Y15500D02*
D03*
X23000D02*
D03*
X20060Y21060D02*
D03*
X10500Y21000D02*
D03*
X55000Y45000D02*
D03*
X50500Y46000D02*
D03*
X13500Y11500D02*
D03*
X19000D02*
D03*
X60000Y33000D02*
D03*
X65500Y30500D02*
D03*
X63000Y35500D02*
D03*
X64000D02*
D03*
X68000Y31250D02*
D03*
X64750D02*
D03*
Y32000D02*
D03*
X68000Y28000D02*
D03*
X70500Y28250D02*
D03*
D103*
X28975Y38700D02*
D03*
X24050D02*
D03*
X19500Y40750D02*
D03*
X23000Y40900D02*
D03*
X27600Y40875D02*
D03*
X57255Y34706D02*
D03*
X10500Y39750D02*
D03*
X3750Y38750D02*
D03*
X4250Y33000D02*
D03*
X7500Y30000D02*
D03*
Y33750D02*
D03*
X10250D02*
D03*
Y30500D02*
D03*
X72000Y41250D02*
D03*
X66750Y25358D02*
D03*
X72250Y10000D02*
D03*
X74000D02*
D03*
X76000D02*
D03*
X67000Y6750D02*
D03*
X69250Y1250D02*
D03*
X73750D02*
D03*
X77500D02*
D03*
X78750Y3750D02*
D03*
Y7500D02*
D03*
Y10000D02*
D03*
X79000Y14500D02*
D03*
Y15750D02*
D03*
Y17000D02*
D03*
Y18250D02*
D03*
X73116Y23750D02*
D03*
Y22250D02*
D03*
X70730Y24750D02*
D03*
X74095Y26500D02*
D03*
X77905Y26750D02*
D03*
X70500Y43060D02*
D03*
X75500Y37000D02*
D03*
Y33690D02*
D03*
X75750Y41750D02*
D03*
X70500Y40500D02*
D03*
X71250Y34310D02*
D03*
X74250Y32020D02*
D03*
X67250Y30500D02*
D03*
X67500Y32000D02*
D03*
X70500Y32250D02*
D03*
X67750Y35098D02*
D03*
X61690Y39750D02*
D03*
X63000Y36902D02*
D03*
X65250Y38500D02*
D03*
X62848Y40500D02*
D03*
X67750D02*
D03*
Y37000D02*
D03*
X68750Y43000D02*
D03*
X63530Y45207D02*
D03*
X62000D02*
D03*
X60250Y42250D02*
D03*
X56000Y43793D02*
D03*
X59250Y41250D02*
D03*
X52750Y35060D02*
D03*
X50500Y38000D02*
D03*
X51750Y37250D02*
D03*
X54620Y34500D02*
D03*
X59903Y30250D02*
D03*
X57500D02*
D03*
X49095Y30437D02*
D03*
X50250Y32104D02*
D03*
X45750Y32250D02*
D03*
Y35750D02*
D03*
X43250Y34500D02*
D03*
X50250Y34500D02*
D03*
X48000Y36750D02*
D03*
X40750Y36690D02*
D03*
X44000Y30500D02*
D03*
X42250Y32000D02*
D03*
X41750Y29400D02*
D03*
X35000Y31850D02*
D03*
X37500Y32000D02*
D03*
X36600Y34250D02*
D03*
X35000D02*
D03*
X32750Y29500D02*
D03*
X35500D02*
D03*
X39250D02*
D03*
Y35000D02*
D03*
Y36690D02*
D03*
X37500D02*
D03*
X26250Y45000D02*
D03*
X23750D02*
D03*
X27000Y47750D02*
D03*
X32000D02*
D03*
X50500D02*
D03*
X43750D02*
D03*
X37500D02*
D03*
X49875Y45225D02*
D03*
X43675Y45250D02*
D03*
X37175D02*
D03*
X50500Y41500D02*
D03*
X43750D02*
D03*
X37500D02*
D03*
X32750Y40500D02*
D03*
X29250Y36750D02*
D03*
X23775Y36500D02*
D03*
X27960Y33750D02*
D03*
X26250Y30050D02*
D03*
X23750Y30000D02*
D03*
X21250D02*
D03*
X23250Y33750D02*
D03*
X21250D02*
D03*
X18750Y30000D02*
D03*
X16250D02*
D03*
X13750D02*
D03*
Y33750D02*
D03*
X16250D02*
D03*
X18750D02*
D03*
X20060Y37990D02*
D03*
X19000Y46000D02*
D03*
X14000D02*
D03*
X10000Y47000D02*
D03*
X12760Y37137D02*
D03*
X13043Y41000D02*
D03*
X7121Y42000D02*
D03*
X7000Y38000D02*
D03*
X1000Y39000D02*
D03*
Y44000D02*
D03*
Y48121D02*
D03*
X3000Y50000D02*
D03*
X12200D02*
D03*
X17000D02*
D03*
X22235D02*
D03*
X27000D02*
D03*
X32000D02*
D03*
X37000D02*
D03*
X42000D02*
D03*
X47000D02*
D03*
X50000D02*
D03*
X53750D02*
D03*
X63750D02*
D03*
X67500D02*
D03*
X71250Y50020D02*
D03*
X76250Y50000D02*
D03*
X78750Y46250D02*
D03*
Y42500D02*
D03*
Y38750D02*
D03*
Y35000D02*
D03*
X35750Y26250D02*
D03*
X31750Y21500D02*
D03*
X28250Y18000D02*
D03*
X25000Y26250D02*
D03*
X27000D02*
D03*
X23000D02*
D03*
Y23250D02*
D03*
X26750Y16500D02*
D03*
X23000D02*
D03*
X26750Y6000D02*
D03*
X23000D02*
D03*
Y13000D02*
D03*
X27000D02*
D03*
X25017Y6721D02*
D03*
X16250Y7000D02*
D03*
D104*
X49500Y8000D02*
D03*
X47500Y27500D02*
D03*
X42500D02*
D03*
X55500Y25000D02*
D03*
Y27500D02*
D03*
X57500D02*
D03*
Y25000D02*
D03*
X9500Y13000D02*
D03*
X60000Y19000D02*
D03*
X64000D02*
D03*
X58500Y2500D02*
D03*
Y5000D02*
D03*
Y8500D02*
D03*
X60000Y1500D02*
D03*
X64000D02*
D03*
X56500D02*
D03*
X35000Y20000D02*
D03*
X37500Y22500D02*
D03*
Y20000D02*
D03*
Y17500D02*
D03*
X35000D02*
D03*
X32500D02*
D03*
X37500Y15000D02*
D03*
X35000D02*
D03*
X32500D02*
D03*
Y2500D02*
D03*
Y5000D02*
D03*
Y7500D02*
D03*
Y10000D02*
D03*
Y12500D02*
D03*
X35000Y2500D02*
D03*
Y5000D02*
D03*
Y7500D02*
D03*
Y10000D02*
D03*
Y12500D02*
D03*
X37500Y2500D02*
D03*
Y5000D02*
D03*
Y7500D02*
D03*
Y10000D02*
D03*
Y12500D02*
D03*
X40000D02*
D03*
Y10000D02*
D03*
Y7500D02*
D03*
Y5000D02*
D03*
Y2500D02*
D03*
X42500D02*
D03*
Y5000D02*
D03*
Y7500D02*
D03*
Y10000D02*
D03*
Y12500D02*
D03*
X60000Y22500D02*
D03*
X63250Y22750D02*
D03*
X60000Y25000D02*
D03*
X57500Y22500D02*
D03*
Y20000D02*
D03*
Y17500D02*
D03*
X55000Y20000D02*
D03*
X52500Y17500D02*
D03*
X50000D02*
D03*
X47500Y22500D02*
D03*
Y25000D02*
D03*
X45000Y27500D02*
D03*
X47500Y20000D02*
D03*
X45000D02*
D03*
Y22500D02*
D03*
Y25000D02*
D03*
X42500D02*
D03*
Y22500D02*
D03*
Y20000D02*
D03*
X54925Y17500D02*
D03*
X47500D02*
D03*
X45000D02*
D03*
X42500D02*
D03*
X52500Y8000D02*
D03*
X51000Y6000D02*
D03*
Y9500D02*
D03*
X50000Y14500D02*
D03*
X51000D02*
D03*
X52000Y14475D02*
D03*
Y12500D02*
D03*
X51000D02*
D03*
X50000D02*
D03*
Y16000D02*
D03*
X51000D02*
D03*
X52000D02*
D03*
Y11000D02*
D03*
X51000D02*
D03*
X50000D02*
D03*
M02*
