G04*
G04 #@! TF.GenerationSoftware,Altium Limited,Altium Designer,23.9.2 (47)*
G04*
G04 Layer_Physical_Order=1*
G04 Layer_Color=255*
%FSLAX43Y43*%
%MOMM*%
G71*
G04*
G04 #@! TF.SameCoordinates,DD1DA4F9-BAAB-46B1-B849-2321CEA9ED03*
G04*
G04*
G04 #@! TF.FilePolarity,Positive*
G04*
G01*
G75*
%ADD11C,0.200*%
%ADD19C,0.127*%
%ADD20C,1.000*%
%ADD21R,3.700X2.700*%
%ADD22R,0.800X2.200*%
%ADD23R,1.150X1.400*%
%ADD24R,2.460X2.310*%
%ADD25R,1.461X0.356*%
%ADD26R,0.640X2.340*%
%ADD27R,0.508X1.168*%
%ADD28R,1.194X0.305*%
%ADD29R,0.305X1.194*%
%ADD30R,0.530X1.250*%
%ADD31C,1.000*%
%ADD32R,0.660X0.620*%
%ADD33R,0.600X1.850*%
%ADD34R,1.800X1.300*%
%ADD35R,0.620X0.660*%
%ADD36R,0.550X0.550*%
%ADD37R,1.400X2.800*%
%ADD38R,2.370X1.710*%
%ADD39R,0.420X0.700*%
%ADD40R,1.300X0.700*%
%ADD41R,0.900X0.900*%
%ADD42R,0.980X3.700*%
%ADD43R,0.550X0.550*%
%ADD44R,0.700X1.300*%
%ADD45R,1.000X1.150*%
%ADD46R,1.400X3.000*%
%ADD47R,0.600X0.500*%
%ADD48R,1.150X1.000*%
%ADD49R,1.100X1.250*%
%ADD50R,0.950X0.650*%
%ADD51R,0.850X0.900*%
%ADD52R,0.900X1.400*%
%ADD53R,1.000X1.350*%
%ADD86C,6.000*%
%ADD90C,0.355*%
%ADD91C,0.254*%
%ADD92C,0.125*%
%ADD93C,0.500*%
%ADD94C,0.750*%
%ADD95C,1.950*%
%ADD96R,1.950X1.950*%
%ADD97C,1.508*%
%ADD98R,1.508X1.508*%
%ADD99C,2.000*%
%ADD100R,1.500X1.500*%
%ADD101C,1.500*%
%ADD102C,0.460*%
%ADD103C,0.500*%
%ADD104C,0.750*%
G36*
X52822Y43201D02*
X52748Y43099D01*
X52581Y43168D01*
X52402Y43191D01*
X31000D01*
X30821Y43168D01*
X30654Y43099D01*
X30511Y42989D01*
X30284Y42762D01*
X30250Y42767D01*
X29987Y42732D01*
X29742Y42630D01*
X29531Y42469D01*
X29370Y42258D01*
X29268Y42013D01*
X29233Y41750D01*
X29238Y41716D01*
X26453Y38931D01*
X26326Y38984D01*
Y40349D01*
X28966Y42988D01*
X29000Y42983D01*
X29263Y43018D01*
X29508Y43120D01*
X29719Y43281D01*
X29880Y43492D01*
X29919Y43584D01*
X52439D01*
X52822Y43201D01*
D02*
G37*
G36*
X52746Y41179D02*
X52687Y41058D01*
X52625Y41066D01*
X35507D01*
X35495Y41097D01*
X35376Y41251D01*
X35222Y41370D01*
X35043Y41444D01*
X34850Y41469D01*
X34657Y41444D01*
X34478Y41370D01*
X34324Y41251D01*
X34205Y41097D01*
X34131Y40918D01*
X34106Y40725D01*
X34131Y40532D01*
X34205Y40353D01*
X34324Y40199D01*
X34478Y40080D01*
X34544Y40053D01*
X34711Y39886D01*
X34854Y39776D01*
X35021Y39707D01*
X35200Y39684D01*
X50720D01*
X50763Y39557D01*
X50724Y39526D01*
X50605Y39372D01*
X50531Y39193D01*
X50506Y39000D01*
X50531Y38807D01*
X50605Y38628D01*
X50724Y38474D01*
X50878Y38355D01*
X51057Y38281D01*
X51250Y38256D01*
X51443Y38281D01*
X51509Y38309D01*
X51714D01*
X54761Y35261D01*
X54904Y35151D01*
X55071Y35082D01*
X55250Y35059D01*
X55429Y35082D01*
X55545Y35130D01*
X58458D01*
Y34288D01*
X59422D01*
Y34466D01*
X59751D01*
Y34446D01*
X61249D01*
Y34466D01*
X61644D01*
X61644Y34466D01*
X66832D01*
X67172Y34126D01*
X67119Y33999D01*
X61696D01*
Y32501D01*
X61716D01*
Y30969D01*
X61589Y30931D01*
X61525Y31025D01*
X61399Y31110D01*
X61266Y31136D01*
X60701Y31701D01*
X60609Y31763D01*
X60500Y31784D01*
X56512D01*
X56399Y31860D01*
X56250Y31889D01*
X56101Y31860D01*
X55975Y31775D01*
X55890Y31649D01*
X55861Y31500D01*
X55863Y31488D01*
X55746Y31425D01*
X54861Y32311D01*
X54861Y32311D01*
X48956Y38215D01*
X48820Y38320D01*
X48661Y38385D01*
X48491Y38408D01*
X48491Y38408D01*
X29926D01*
X29920Y38410D01*
X29750Y38433D01*
X29580Y38410D01*
X29421Y38345D01*
X29285Y38240D01*
X29180Y38104D01*
X29125Y37971D01*
X29012Y37927D01*
X29012Y37927D01*
X29012Y37927D01*
X28468D01*
Y38283D01*
X27927D01*
X27878Y38400D01*
X30216Y40738D01*
X30250Y40733D01*
X30513Y40768D01*
X30758Y40870D01*
X30969Y41031D01*
X31130Y41242D01*
X31232Y41487D01*
X31267Y41750D01*
X31384Y41809D01*
X52116D01*
X52746Y41179D01*
D02*
G37*
G36*
X23623Y37073D02*
X24167D01*
Y36717D01*
X24944D01*
Y36548D01*
X24852D01*
Y35464D01*
X24827Y35347D01*
X23903D01*
Y35275D01*
X23213D01*
X23160Y35328D01*
Y37216D01*
X23623D01*
Y37073D01*
D02*
G37*
G36*
X39716Y29000D02*
X32476D01*
X32390Y29127D01*
X32414Y29310D01*
X32383Y29547D01*
X32291Y29767D01*
X32146Y29956D01*
X31957Y30101D01*
X31737Y30193D01*
X31500Y30224D01*
X31263Y30193D01*
X31043Y30101D01*
X30854Y29956D01*
X30805Y29892D01*
X30052D01*
Y30202D01*
X29537D01*
Y34277D01*
X30085Y34825D01*
X30202Y34776D01*
Y33948D01*
X31906D01*
Y37052D01*
X32016Y37092D01*
X32492D01*
X32602Y37052D01*
X32602Y36965D01*
Y33948D01*
X34306D01*
Y34842D01*
X35500D01*
X35625Y34859D01*
X35750Y34842D01*
X37000D01*
X37170Y34865D01*
X37329Y34930D01*
X37465Y35035D01*
X37570Y35171D01*
X37635Y35330D01*
X37658Y35500D01*
X37635Y35670D01*
X37570Y35829D01*
X37465Y35965D01*
X37329Y36070D01*
X37170Y36135D01*
X37000Y36158D01*
X36212D01*
Y36292D01*
X35288D01*
Y36158D01*
X34306D01*
X34306Y37052D01*
X34416Y37092D01*
X39716D01*
Y29000D01*
D02*
G37*
G36*
X79500Y48500D02*
Y2000D01*
X78000Y500D01*
X30500D01*
X30000Y1000D01*
Y16000D01*
X39598Y25598D01*
X39716Y25550D01*
Y15700D01*
X39737Y15591D01*
X39799Y15499D01*
X40999Y14299D01*
X41091Y14237D01*
X41200Y14216D01*
X45132D01*
X46374Y12974D01*
X46466Y12912D01*
X46575Y12891D01*
X47190D01*
Y12845D01*
X48955D01*
Y13495D01*
Y14145D01*
Y14795D01*
Y15445D01*
Y16105D01*
X47190D01*
Y16059D01*
X41543D01*
X41284Y16318D01*
Y31882D01*
X42016Y32614D01*
X42149Y32640D01*
X42262Y32716D01*
X42662D01*
X42680Y32671D01*
X42785Y32535D01*
X42921Y32430D01*
X43080Y32365D01*
X43250Y32342D01*
X43420Y32365D01*
X43579Y32430D01*
X43715Y32535D01*
X43820Y32671D01*
X43885Y32830D01*
X43908Y33000D01*
X43885Y33170D01*
X43820Y33329D01*
X43715Y33465D01*
X43579Y33570D01*
X43420Y33635D01*
X43250Y33658D01*
X43080Y33635D01*
X42921Y33570D01*
X42785Y33465D01*
X42680Y33329D01*
X42662Y33284D01*
X42262D01*
X42149Y33360D01*
X42000Y33389D01*
X41851Y33360D01*
X41725Y33275D01*
X41640Y33149D01*
X41614Y33016D01*
X40911Y32314D01*
X40784Y32366D01*
Y32632D01*
X41516Y33364D01*
X41649Y33390D01*
X41775Y33475D01*
X41860Y33601D01*
X41889Y33750D01*
X41860Y33899D01*
X41784Y34012D01*
Y34412D01*
X41829Y34430D01*
X41965Y34535D01*
X42070Y34671D01*
X42135Y34830D01*
X42158Y35000D01*
X42135Y35170D01*
X42070Y35329D01*
X41965Y35465D01*
X41829Y35570D01*
X41670Y35635D01*
X41500Y35658D01*
X41330Y35635D01*
X41171Y35570D01*
X41035Y35465D01*
X40930Y35329D01*
X40865Y35170D01*
X40842Y35000D01*
X40865Y34830D01*
X40930Y34671D01*
X41035Y34535D01*
X41171Y34430D01*
X41216Y34412D01*
Y34012D01*
X41140Y33899D01*
X41114Y33766D01*
X40411Y33064D01*
X40284Y33116D01*
Y37092D01*
X48219D01*
X53067Y32244D01*
X53018Y32127D01*
X52478D01*
Y31984D01*
X52062D01*
Y32127D01*
X51208D01*
Y31354D01*
X51208Y31273D01*
X51208Y31186D01*
X51117Y31059D01*
X50974D01*
X50899Y31110D01*
X50750Y31139D01*
X50601Y31110D01*
X50475Y31025D01*
X50390Y30899D01*
X50361Y30750D01*
X50390Y30601D01*
X50426Y30547D01*
Y30530D01*
X50297Y30401D01*
X50250Y30408D01*
X50080Y30385D01*
X49921Y30320D01*
X49785Y30215D01*
X49680Y30079D01*
X49615Y29920D01*
X49592Y29750D01*
X49615Y29580D01*
X49680Y29421D01*
X49785Y29285D01*
X49921Y29180D01*
X50080Y29115D01*
X50250Y29092D01*
X50420Y29115D01*
X50579Y29180D01*
X50715Y29285D01*
X50820Y29421D01*
X50885Y29580D01*
X50908Y29750D01*
X50885Y29920D01*
X50820Y30079D01*
X50802Y30102D01*
X50912Y30211D01*
X50973Y30304D01*
X50995Y30412D01*
Y30454D01*
X51025Y30475D01*
X51036Y30491D01*
X51208D01*
Y30373D01*
X51351D01*
Y27427D01*
X51218D01*
Y25873D01*
X52052D01*
Y27427D01*
X51919D01*
Y30373D01*
X52062D01*
Y31146D01*
X52062Y31227D01*
X52062Y31326D01*
X52152Y31416D01*
X52388D01*
X52478Y31326D01*
Y31273D01*
X52478Y31146D01*
Y30373D01*
X52621D01*
Y27427D01*
X52488D01*
Y25873D01*
X53322D01*
Y27427D01*
X53189D01*
Y30373D01*
X53332D01*
Y30491D01*
X53455D01*
X53466Y30475D01*
X53496Y30454D01*
Y30437D01*
X53518Y30329D01*
X53579Y30236D01*
X53714Y30102D01*
X53696Y30079D01*
X53631Y29920D01*
X53608Y29750D01*
X53631Y29580D01*
X53696Y29421D01*
X53801Y29285D01*
X53937Y29180D01*
X54096Y29115D01*
X54266Y29092D01*
X54436Y29115D01*
X54595Y29180D01*
X54731Y29285D01*
X54836Y29421D01*
X54901Y29580D01*
X54924Y29750D01*
X54901Y29920D01*
X54836Y30079D01*
X54731Y30215D01*
X54595Y30320D01*
X54436Y30385D01*
X54266Y30408D01*
X54219Y30401D01*
X54068Y30552D01*
X54101Y30601D01*
X54130Y30750D01*
X54101Y30899D01*
X54016Y31025D01*
X53890Y31110D01*
X53741Y31139D01*
X53592Y31110D01*
X53517Y31059D01*
X53422D01*
X53332Y31149D01*
X53332Y31326D01*
X53422Y31416D01*
X53895D01*
X53930Y31381D01*
X53930Y31380D01*
X55825Y29486D01*
X54359Y28020D01*
X54297Y27928D01*
X54276Y27819D01*
Y21812D01*
X54078D01*
Y21634D01*
X53322D01*
Y22127D01*
X52488D01*
Y20573D01*
X53322D01*
Y21066D01*
X54078D01*
Y20888D01*
X55042D01*
Y21812D01*
X54844D01*
Y27701D01*
X56227Y29084D01*
X56526Y28785D01*
X56526Y28785D01*
X56662Y28680D01*
X56821Y28615D01*
X56991Y28592D01*
X59978D01*
X62535Y26035D01*
X62535Y26035D01*
X62671Y25930D01*
X62830Y25865D01*
X63000Y25842D01*
X67385D01*
Y15850D01*
X67398Y15820D01*
Y15698D01*
X67520D01*
X67550Y15685D01*
X68255D01*
X68285Y15698D01*
X68402D01*
Y15764D01*
X70136Y17498D01*
X70207D01*
Y17620D01*
X70220Y17650D01*
Y25403D01*
X71369D01*
Y24326D01*
X72293D01*
Y24518D01*
X72548D01*
Y24369D01*
X73402D01*
Y24510D01*
X73668D01*
Y24365D01*
X73811D01*
Y23622D01*
X73543D01*
Y21142D01*
X73543Y21118D01*
X73486Y21015D01*
X72993D01*
X72577Y21431D01*
Y21502D01*
X72455D01*
X72425Y21515D01*
X71445D01*
X71415Y21502D01*
X71293D01*
Y21380D01*
X71280Y21350D01*
Y17650D01*
X71293Y17620D01*
Y17498D01*
X71415D01*
X71445Y17485D01*
X72425D01*
X72455Y17498D01*
X72577D01*
Y17569D01*
X72993Y17985D01*
X73486D01*
X73543Y17882D01*
X73543Y17858D01*
Y16534D01*
X71672D01*
Y16712D01*
X70708D01*
Y15788D01*
X71672D01*
Y15966D01*
X73543D01*
Y15378D01*
X74414D01*
X74463Y15261D01*
X74117Y14915D01*
X65750D01*
X65634Y14866D01*
X65434Y14666D01*
X65385Y14550D01*
X65385Y12125D01*
X65398Y12095D01*
Y11973D01*
X65520D01*
X65550Y11960D01*
X66379D01*
X66431Y11833D01*
X65799Y11201D01*
X65737Y11109D01*
X65716Y11000D01*
Y10027D01*
X65398D01*
Y8823D01*
X65716D01*
Y8427D01*
X65573D01*
Y7573D01*
X66427D01*
Y8427D01*
X66284D01*
Y8823D01*
X66602D01*
Y10027D01*
X66284D01*
Y10882D01*
X67536Y12134D01*
X67663Y12081D01*
Y11998D01*
X68435D01*
X68465Y11985D01*
X71788D01*
Y11958D01*
X72712D01*
Y11985D01*
X78650D01*
X78766Y12034D01*
X78866Y12134D01*
X78915Y12250D01*
Y13815D01*
X78866Y13931D01*
X77187Y15611D01*
Y17858D01*
X77187Y17882D01*
X77244Y17985D01*
X77850D01*
X77880Y17998D01*
X78002D01*
Y18120D01*
X78015Y18150D01*
Y19216D01*
X78250D01*
X78359Y19237D01*
X78451Y19299D01*
X79201Y20049D01*
X79263Y20141D01*
X79284Y20250D01*
Y25500D01*
X79263Y25609D01*
X79201Y25701D01*
X79010Y25893D01*
X78917Y25954D01*
X78809Y25976D01*
X78367D01*
Y26173D01*
X77443D01*
Y25209D01*
Y24329D01*
X77621D01*
Y23622D01*
X77353D01*
Y21221D01*
X77234Y21099D01*
X77198D01*
X77187Y21118D01*
X77187Y21142D01*
Y23622D01*
X76919D01*
Y24334D01*
X77097D01*
Y25298D01*
X76173D01*
Y24334D01*
X76351D01*
Y23622D01*
X76083D01*
Y21142D01*
X76083Y21118D01*
X76072Y21099D01*
X75928D01*
X75917Y21118D01*
X75917Y21142D01*
Y23622D01*
X75649D01*
Y24374D01*
X75792D01*
Y25147D01*
X75792Y25228D01*
X75792Y25355D01*
Y26128D01*
X75747D01*
Y26285D01*
X75750Y26288D01*
X76072D01*
Y27212D01*
X75108D01*
Y26288D01*
X75178D01*
Y26128D01*
X74938D01*
Y25355D01*
X74938Y25274D01*
X74938Y25147D01*
Y24374D01*
X75081D01*
Y23622D01*
X74813D01*
Y21142D01*
X74813Y21118D01*
X74802Y21099D01*
X74658D01*
X74647Y21118D01*
X74647Y21142D01*
Y23622D01*
X74379D01*
Y24365D01*
X74522D01*
Y25219D01*
X73668D01*
Y25078D01*
X73402D01*
Y25223D01*
X73402D01*
Y25269D01*
X73402D01*
Y26123D01*
X72548D01*
Y25976D01*
X72293D01*
Y26170D01*
X71369D01*
Y25972D01*
X70789D01*
X70776Y26099D01*
X70887Y26121D01*
X71020Y26210D01*
X72638Y27828D01*
X73862D01*
Y29632D01*
X73954Y29716D01*
X75190D01*
X75216Y29589D01*
X75045Y29518D01*
X74857Y29373D01*
X74712Y29185D01*
X74621Y28965D01*
X74590Y28730D01*
X74621Y28495D01*
X74712Y28275D01*
X74857Y28087D01*
X75045Y27942D01*
X75265Y27851D01*
X75500Y27820D01*
X75735Y27851D01*
X75955Y27942D01*
X76143Y28087D01*
X76288Y28275D01*
X76379Y28495D01*
X76410Y28730D01*
X76379Y28965D01*
X76288Y29185D01*
X76143Y29373D01*
X75955Y29518D01*
X75784Y29589D01*
X75810Y29716D01*
X76652D01*
X77232Y29136D01*
X77161Y28965D01*
X77130Y28730D01*
X77161Y28495D01*
X77252Y28275D01*
X77397Y28087D01*
X77585Y27942D01*
X77805Y27851D01*
X78040Y27820D01*
X78275Y27851D01*
X78495Y27942D01*
X78683Y28087D01*
X78828Y28275D01*
X78919Y28495D01*
X78950Y28730D01*
X78919Y28965D01*
X78828Y29185D01*
X78683Y29373D01*
X78495Y29518D01*
X78275Y29609D01*
X78040Y29640D01*
X77805Y29609D01*
X77634Y29538D01*
X76971Y30201D01*
X76879Y30263D01*
X76770Y30284D01*
X75810D01*
X75784Y30411D01*
X75955Y30482D01*
X76143Y30627D01*
X76288Y30815D01*
X76379Y31035D01*
X76410Y31270D01*
X76379Y31505D01*
X76288Y31725D01*
X76143Y31913D01*
X75955Y32058D01*
X75784Y32128D01*
Y32500D01*
X75763Y32609D01*
X75701Y32701D01*
X75201Y33201D01*
X75109Y33263D01*
X75000Y33284D01*
X71618D01*
X70784Y34118D01*
Y35238D01*
X70860Y35351D01*
X70889Y35500D01*
X70860Y35649D01*
X70775Y35775D01*
X70649Y35860D01*
X70500Y35889D01*
X70351Y35860D01*
X70225Y35775D01*
X70140Y35649D01*
X70111Y35500D01*
X70140Y35351D01*
X70216Y35238D01*
Y34000D01*
X70237Y33891D01*
X70299Y33799D01*
X71299Y32799D01*
X71391Y32737D01*
X71500Y32716D01*
X74882D01*
X75216Y32382D01*
Y32128D01*
X75045Y32058D01*
X74857Y31913D01*
X74712Y31725D01*
X74621Y31505D01*
X74590Y31270D01*
X74621Y31035D01*
X74712Y30815D01*
X74857Y30627D01*
X75045Y30482D01*
X75216Y30411D01*
X75190Y30284D01*
X73270D01*
X73244Y30411D01*
X73415Y30482D01*
X73603Y30627D01*
X73748Y30815D01*
X73839Y31035D01*
X73870Y31270D01*
X73839Y31505D01*
X73748Y31725D01*
X73603Y31913D01*
X73415Y32058D01*
X73195Y32149D01*
X72960Y32180D01*
X72725Y32149D01*
X72505Y32058D01*
X72317Y31913D01*
X72172Y31725D01*
X72081Y31505D01*
X72050Y31270D01*
X72081Y31035D01*
X72085Y31026D01*
X71093Y30034D01*
X65719D01*
X65681Y30161D01*
X65775Y30225D01*
X65860Y30351D01*
X65889Y30500D01*
X65860Y30649D01*
X65784Y30762D01*
Y31834D01*
X65911Y31886D01*
X66073Y31725D01*
Y31273D01*
X66927D01*
Y32127D01*
X66475D01*
X66284Y32318D01*
Y32501D01*
X67804D01*
Y32966D01*
X68112D01*
X68279Y32799D01*
X68328Y32766D01*
Y32538D01*
X68526D01*
Y31902D01*
X68348D01*
Y31660D01*
X68000D01*
X67843Y31629D01*
X67710Y31540D01*
X67621Y31407D01*
X67590Y31250D01*
X67621Y31093D01*
X67710Y30960D01*
X67843Y30871D01*
X68000Y30840D01*
X68348D01*
Y30598D01*
X69802D01*
Y31902D01*
X69094D01*
Y32538D01*
X69292D01*
Y33462D01*
X68415D01*
X68339Y33513D01*
X68230Y33534D01*
X67804D01*
Y33999D01*
X67784D01*
Y34200D01*
X67763Y34309D01*
X67701Y34401D01*
X67151Y34951D01*
X67059Y35013D01*
X66950Y35034D01*
X64219D01*
X64181Y35161D01*
X64275Y35225D01*
X64360Y35351D01*
X64372Y35414D01*
X64424Y35466D01*
X68251D01*
Y34446D01*
X68716D01*
Y34262D01*
X68640Y34149D01*
X68611Y34000D01*
X68640Y33851D01*
X68725Y33725D01*
X68851Y33640D01*
X69000Y33611D01*
X69149Y33640D01*
X69275Y33725D01*
X69360Y33851D01*
X69389Y34000D01*
X69360Y34149D01*
X69284Y34262D01*
Y34446D01*
X69749D01*
Y35446D01*
Y36596D01*
X72668D01*
X72823Y36441D01*
Y35048D01*
X73071D01*
X73120Y34931D01*
X73035Y34845D01*
X72987Y34774D01*
X72970Y34690D01*
Y34462D01*
X72708D01*
Y33538D01*
X73672D01*
Y34462D01*
X73410D01*
Y34599D01*
X73705Y34895D01*
X73753Y34966D01*
X73769Y35048D01*
X74277D01*
Y36752D01*
X73134D01*
X72915Y36971D01*
X72844Y37019D01*
X72759Y37035D01*
X72026D01*
X71973Y37162D01*
X72055Y37245D01*
X72058Y37248D01*
X72677D01*
Y38952D01*
X72429D01*
X72380Y39069D01*
X72465Y39155D01*
X72513Y39226D01*
X72530Y39310D01*
Y39538D01*
X72792D01*
Y40462D01*
X71828D01*
Y39538D01*
X72090D01*
Y39401D01*
X71795Y39105D01*
X71747Y39034D01*
X71731Y38952D01*
X71223D01*
Y37470D01*
X70621D01*
X70552Y37597D01*
X70569Y37624D01*
X70649Y37640D01*
X70775Y37725D01*
X70860Y37851D01*
X70889Y38000D01*
X70880Y38049D01*
X70962Y38176D01*
X70962D01*
Y39140D01*
X70038D01*
Y38176D01*
X70038D01*
X70044Y38161D01*
X69959Y38034D01*
X69749D01*
Y38446D01*
Y39446D01*
Y40554D01*
X69249D01*
X69211Y40681D01*
X69275Y40725D01*
X69360Y40851D01*
X69389Y41000D01*
X69360Y41149D01*
X69284Y41262D01*
Y41285D01*
X69951Y41952D01*
X70013Y42044D01*
X70034Y42153D01*
Y45623D01*
X70177D01*
Y46396D01*
X70177Y46477D01*
X70177Y46604D01*
Y47377D01*
X70034D01*
Y48328D01*
X70212D01*
Y49292D01*
X69288D01*
Y48328D01*
X69179Y48284D01*
X64954D01*
X64952Y48301D01*
X64836Y48581D01*
X64652Y48822D01*
X64411Y49006D01*
X64131Y49122D01*
X63830Y49162D01*
X63529Y49122D01*
X63249Y49006D01*
X63236Y48996D01*
X62531Y49701D01*
X62439Y49763D01*
X62330Y49784D01*
X55170D01*
X55061Y49763D01*
X54969Y49701D01*
X54264Y48996D01*
X54251Y49006D01*
X53971Y49122D01*
X53670Y49162D01*
X53369Y49122D01*
X53089Y49006D01*
X52848Y48822D01*
X52664Y48581D01*
X52548Y48301D01*
X52508Y48000D01*
X52548Y47699D01*
X52664Y47419D01*
X52848Y47178D01*
X53089Y46994D01*
X53369Y46878D01*
X53670Y46838D01*
X53971Y46878D01*
X54251Y46994D01*
X54492Y47178D01*
X54676Y47419D01*
X54792Y47699D01*
X54832Y48000D01*
X54792Y48301D01*
X54676Y48581D01*
X54666Y48594D01*
X55288Y49216D01*
X62212D01*
X62834Y48594D01*
X62824Y48581D01*
X62708Y48301D01*
X62668Y48000D01*
X62708Y47699D01*
X62824Y47419D01*
X63008Y47178D01*
X63249Y46994D01*
X63529Y46878D01*
X63830Y46838D01*
X64131Y46878D01*
X64411Y46994D01*
X64652Y47178D01*
X64836Y47419D01*
X64952Y47699D01*
X64954Y47716D01*
X69466D01*
Y47377D01*
X69323D01*
Y46604D01*
X69323Y46523D01*
X69323Y46396D01*
Y45623D01*
X69466D01*
Y42271D01*
X68799Y41604D01*
X68737Y41512D01*
X68716Y41403D01*
Y41262D01*
X68640Y41149D01*
X68611Y41000D01*
X68640Y40851D01*
X68725Y40725D01*
X68789Y40681D01*
X68751Y40554D01*
X68251D01*
Y39446D01*
Y38446D01*
Y37446D01*
Y36534D01*
X63750D01*
X63641Y36513D01*
X63549Y36451D01*
X62984Y35886D01*
X62851Y35860D01*
X62725Y35775D01*
X62661Y35681D01*
X62534Y35719D01*
Y40250D01*
X62513Y40359D01*
X62451Y40451D01*
X62284Y40618D01*
Y40750D01*
X62284Y40750D01*
Y41001D01*
X67804D01*
Y42499D01*
X65519D01*
X65452Y42598D01*
Y43402D01*
X64548D01*
Y43314D01*
X63962D01*
Y43542D01*
X63038D01*
Y42578D01*
X62944Y42499D01*
X62556D01*
X62462Y42578D01*
Y43542D01*
X61538D01*
Y42904D01*
X61533Y42877D01*
X61538Y42850D01*
Y42578D01*
X61601D01*
X61696Y42499D01*
Y41001D01*
X61716D01*
Y40750D01*
X61716Y40750D01*
Y40500D01*
X61737Y40391D01*
X61799Y40299D01*
X61966Y40132D01*
Y35034D01*
X61709D01*
X61630Y35076D01*
X61605Y35149D01*
Y35590D01*
Y36590D01*
Y37910D01*
X61249D01*
Y38446D01*
Y39446D01*
Y40554D01*
X59751D01*
Y39446D01*
Y38393D01*
X59634Y38344D01*
X53214Y44764D01*
X53071Y44874D01*
X52904Y44943D01*
X52725Y44966D01*
X29450D01*
X29337Y44952D01*
X29263Y44982D01*
X29000Y45017D01*
X28737Y44982D01*
X28492Y44880D01*
X28281Y44719D01*
X28120Y44508D01*
X28018Y44263D01*
X27983Y44000D01*
X27988Y43966D01*
X25146Y41124D01*
X25036Y40981D01*
X24967Y40814D01*
X24944Y40635D01*
Y38283D01*
X24167D01*
Y37927D01*
X23623D01*
Y37784D01*
X23174D01*
X23160Y37798D01*
Y38960D01*
X23129Y39117D01*
X23040Y39250D01*
X20000Y42290D01*
X19867Y42379D01*
X19710Y42410D01*
X13213D01*
X13160Y42463D01*
Y43223D01*
X13452D01*
Y44777D01*
X13160D01*
Y47223D01*
X13452D01*
Y48777D01*
X12048D01*
Y47223D01*
X12340D01*
Y44777D01*
X12048D01*
Y43223D01*
X12340D01*
Y42293D01*
X12371Y42136D01*
X12460Y42003D01*
X12753Y41710D01*
X12886Y41621D01*
X13043Y41590D01*
X19540D01*
X22340Y38790D01*
Y37750D01*
Y35328D01*
X22287Y35275D01*
X20522D01*
Y35347D01*
X19598D01*
Y34383D01*
X19650D01*
Y33357D01*
X19588D01*
Y30713D01*
X20532D01*
Y33357D01*
X20470D01*
Y34383D01*
X20522D01*
Y34455D01*
X22457D01*
X22614Y34486D01*
X22747Y34575D01*
X22750Y34578D01*
X22753Y34575D01*
X22886Y34486D01*
X23043Y34455D01*
X23903D01*
Y34383D01*
X23955D01*
Y31607D01*
X23959Y31587D01*
Y30871D01*
X24771D01*
X24873Y30810D01*
Y30515D01*
X27667D01*
Y32699D01*
X27596D01*
Y34082D01*
X27688D01*
Y34982D01*
Y36548D01*
X27596D01*
Y36717D01*
X28468D01*
Y37073D01*
X29012D01*
Y37216D01*
X29400D01*
X29446Y37180D01*
X29605Y37115D01*
X29775Y37092D01*
X30092D01*
X30202Y37052D01*
Y36037D01*
X30000D01*
X29794Y35996D01*
X29620Y35880D01*
X29620Y35880D01*
X28620Y34880D01*
X28504Y34706D01*
X28463Y34500D01*
X28463Y34500D01*
Y30202D01*
X27948D01*
Y29000D01*
X5139D01*
X5133Y29047D01*
X5041Y29267D01*
X4896Y29456D01*
X4707Y29601D01*
X4487Y29693D01*
X4250Y29724D01*
X4013Y29693D01*
X3793Y29601D01*
X3677Y29513D01*
X2802D01*
Y29702D01*
X2433D01*
Y33948D01*
X2652D01*
Y37052D01*
X948D01*
Y33948D01*
X1117D01*
Y29702D01*
X698D01*
Y29000D01*
X500D01*
Y48500D01*
X2500Y50500D01*
X77500D01*
X79500Y48500D01*
D02*
G37*
G36*
X56529Y31149D02*
X56616Y31020D01*
X56611Y30991D01*
X56640Y30842D01*
X56725Y30716D01*
X56851Y30631D01*
X57000Y30602D01*
X57149Y30631D01*
X57262Y30707D01*
X60141D01*
X60864Y29984D01*
X60890Y29851D01*
X60975Y29725D01*
X61101Y29640D01*
X61250Y29611D01*
X61399Y29640D01*
X61525Y29725D01*
X61610Y29851D01*
X61613Y29866D01*
X61699Y29883D01*
X61745Y29879D01*
X61799Y29799D01*
X63049Y28549D01*
X63141Y28487D01*
X63250Y28466D01*
X67745D01*
X67783Y28339D01*
X67710Y28290D01*
X67621Y28157D01*
X67590Y28000D01*
X67621Y27843D01*
X67710Y27710D01*
X67843Y27621D01*
X68000Y27590D01*
X68750D01*
X68790Y27598D01*
X69202D01*
Y28339D01*
X69202Y28402D01*
X69303Y28466D01*
X69838D01*
X70125Y28179D01*
X70140Y28101D01*
X70225Y27975D01*
X70351Y27890D01*
X70500Y27861D01*
X70649Y27890D01*
X70775Y27975D01*
X70860Y28101D01*
X70889Y28250D01*
X70860Y28399D01*
X70775Y28525D01*
X70649Y28610D01*
X70500Y28639D01*
X70474Y28634D01*
X70270Y28839D01*
X70323Y28966D01*
X71331D01*
X71440Y28987D01*
X71532Y29049D01*
X71941Y29457D01*
X72058Y29409D01*
Y28408D01*
X70560Y26910D01*
X70220D01*
Y27250D01*
X70171Y27366D01*
X70055Y27415D01*
X67550D01*
X67434Y27366D01*
X67385Y27250D01*
Y27158D01*
X63272D01*
X60715Y29715D01*
X60579Y29820D01*
X60420Y29885D01*
X60250Y29908D01*
X60250Y29908D01*
X57263D01*
X56956Y30215D01*
X56956Y30215D01*
X56175Y30996D01*
X56238Y31113D01*
X56250Y31111D01*
X56399Y31140D01*
X56439Y31167D01*
X56529Y31149D01*
D02*
G37*
G36*
X29900Y25000D02*
X32250D01*
Y23860D01*
X27500D01*
X27449Y23809D01*
X26651D01*
Y24977D01*
X26674Y25000D01*
X28100D01*
Y27000D01*
X29900D01*
Y25000D01*
D02*
G37*
G36*
X38500Y26450D02*
X37450D01*
X27902Y16902D01*
X27784Y16950D01*
Y22500D01*
X27763Y22609D01*
X27701Y22701D01*
X27189Y23213D01*
Y23644D01*
X27449D01*
X27565Y23693D01*
X27568Y23695D01*
X30762D01*
X30775Y23674D01*
X30944Y23505D01*
X31150Y23386D01*
X31381Y23324D01*
X31619D01*
X31850Y23386D01*
X32056Y23505D01*
X32225Y23674D01*
X32238Y23695D01*
X32250D01*
X32366Y23744D01*
X32415Y23860D01*
Y25000D01*
X32366Y25116D01*
X32250Y25165D01*
X30065D01*
Y27000D01*
X38500D01*
Y26450D01*
D02*
G37*
G36*
X20000Y24287D02*
X19588D01*
Y21643D01*
X19650D01*
Y21470D01*
X19462D01*
Y21542D01*
X18538D01*
Y20578D01*
X19462D01*
Y20650D01*
X20000D01*
Y19500D01*
Y5500D01*
X16769D01*
Y5699D01*
X17156Y6086D01*
X17215Y6174D01*
X17235Y6277D01*
Y9010D01*
X17215Y9113D01*
X17156Y9201D01*
X17076Y9281D01*
X17125Y9398D01*
X17852D01*
Y11202D01*
X16684D01*
Y12123D01*
X17802D01*
Y13877D01*
X16684D01*
Y14598D01*
X17387D01*
Y16852D01*
X16684D01*
Y17073D01*
X17362D01*
Y17973D01*
Y18927D01*
X16684D01*
Y19148D01*
X17387D01*
Y21402D01*
X16684D01*
Y22278D01*
X16684Y22278D01*
Y22584D01*
X16726Y22695D01*
X16998D01*
Y21593D01*
X18042D01*
Y24337D01*
X16998D01*
Y23235D01*
X16487D01*
X16384Y23214D01*
X16297Y23156D01*
X16250Y23109D01*
X16203Y23156D01*
X16116Y23214D01*
X16013Y23235D01*
X15502D01*
Y24337D01*
X14458D01*
Y21593D01*
X15502D01*
Y22695D01*
X15816D01*
Y22448D01*
X15816Y22448D01*
Y22414D01*
X15816Y22414D01*
Y21402D01*
X15113D01*
Y19148D01*
X15816D01*
Y18927D01*
X15138D01*
Y17973D01*
Y17073D01*
X15816D01*
Y16852D01*
X15113D01*
Y14598D01*
X15816D01*
Y13877D01*
X14698D01*
Y12123D01*
X15816D01*
Y11202D01*
X14648D01*
Y9398D01*
X15375D01*
X15424Y9281D01*
X15344Y9201D01*
X15285Y9113D01*
X15265Y9010D01*
Y6358D01*
X15285Y6255D01*
X15344Y6168D01*
X15801Y5710D01*
Y5500D01*
X10500Y5500D01*
X500Y15500D01*
Y26750D01*
X698D01*
Y25298D01*
X1092D01*
Y23730D01*
Y21586D01*
X1092Y21586D01*
X1115Y21416D01*
X1180Y21257D01*
X1285Y21121D01*
X1871Y20535D01*
X2007Y20430D01*
X2166Y20365D01*
X2336Y20342D01*
X2336Y20342D01*
X3038D01*
Y19958D01*
X3962D01*
Y20342D01*
X10500D01*
X10670Y20365D01*
X10829Y20430D01*
X10965Y20535D01*
X11070Y20671D01*
X11135Y20830D01*
X11158Y21000D01*
X11135Y21170D01*
X11070Y21329D01*
X10965Y21465D01*
X10829Y21570D01*
X10670Y21635D01*
X10500Y21658D01*
X2608D01*
X2408Y21858D01*
Y23072D01*
X3626D01*
X3694Y23005D01*
X3900Y22886D01*
X4131Y22824D01*
X4369D01*
X4600Y22886D01*
X4806Y23005D01*
X4975Y23174D01*
X5094Y23380D01*
X5156Y23611D01*
Y23849D01*
X5094Y24080D01*
X4975Y24286D01*
X4806Y24455D01*
X4600Y24574D01*
X4369Y24636D01*
X4131D01*
X3900Y24574D01*
X3694Y24455D01*
X3626Y24388D01*
X2408D01*
Y25298D01*
X2802D01*
Y26750D01*
X20000D01*
Y24287D01*
D02*
G37*
G36*
X78716Y25382D02*
Y20368D01*
X78142Y19794D01*
X78015Y19807D01*
Y20850D01*
X78002Y20880D01*
Y21002D01*
X78002D01*
X78029Y21118D01*
X78457D01*
Y23622D01*
X78189D01*
Y24329D01*
X78367D01*
Y25407D01*
X78691D01*
X78716Y25382D01*
D02*
G37*
G36*
X72925Y20850D02*
X77850D01*
Y19784D01*
X76000D01*
X75891Y19763D01*
X75799Y19701D01*
X75737Y19609D01*
X75716Y19500D01*
X75737Y19391D01*
X75799Y19299D01*
X75891Y19237D01*
X76000Y19216D01*
X77850D01*
Y18150D01*
X72925D01*
X72425Y17650D01*
X71445D01*
Y21350D01*
X72425D01*
X72925Y20850D01*
D02*
G37*
G36*
X70055Y17650D02*
X68255Y15850D01*
X67550D01*
Y27250D01*
X70055D01*
Y17650D01*
D02*
G37*
G36*
X47190Y14145D02*
Y13459D01*
X46693D01*
X45451Y14701D01*
X45433Y14714D01*
X45471Y14841D01*
X47190D01*
Y14145D01*
D02*
G37*
G36*
X77000Y15565D02*
X78750Y13815D01*
Y12250D01*
X78650Y12150D01*
X68465D01*
Y13250D01*
X66675D01*
X66450Y13025D01*
Y12125D01*
X65550D01*
X65550Y14550D01*
X65750Y14750D01*
X74185D01*
X74965Y15530D01*
Y17730D01*
X74985Y17750D01*
X77000D01*
Y15565D01*
D02*
G37*
G36*
X16696Y8898D02*
Y6389D01*
X16376Y6069D01*
X16278Y6021D01*
X16203Y6071D01*
X15804Y6470D01*
Y8898D01*
X16250Y9344D01*
X16696Y8898D01*
D02*
G37*
G36*
X25445Y8898D02*
Y6472D01*
X24990Y6017D01*
X24555Y6452D01*
Y8898D01*
X25000Y9343D01*
X25445Y8898D01*
D02*
G37*
G36*
X27935Y25165D02*
X26674D01*
X26589Y25129D01*
X26499D01*
Y25008D01*
X26486Y24977D01*
Y23809D01*
X26499Y23779D01*
Y23657D01*
X26621D01*
Y23095D01*
X26642Y22986D01*
X26704Y22894D01*
X27216Y22382D01*
Y15756D01*
X27176Y15716D01*
X27118Y15576D01*
Y15424D01*
X27176Y15284D01*
X27284Y15176D01*
X27424Y15118D01*
X27500D01*
Y5500D01*
X25434D01*
Y5698D01*
X25905Y6169D01*
X25964Y6257D01*
X25984Y6360D01*
Y9010D01*
X25964Y9113D01*
X25905Y9200D01*
X25825Y9281D01*
X25873Y9398D01*
X26602D01*
Y11202D01*
X25434D01*
Y12348D01*
X26402D01*
Y13652D01*
X25434D01*
Y14023D01*
X26027D01*
Y14977D01*
X25434D01*
Y16598D01*
X26137D01*
Y18852D01*
X25434D01*
Y18989D01*
X25519Y19073D01*
X26227D01*
Y19973D01*
Y20927D01*
X25519D01*
X25434Y21011D01*
Y21148D01*
X26137D01*
Y23402D01*
X25434D01*
Y23607D01*
X26091D01*
Y25179D01*
X25179D01*
Y24651D01*
X25134Y24642D01*
X25047Y24584D01*
X25000Y24537D01*
X24953Y24584D01*
X24866Y24642D01*
X24821Y24651D01*
Y25179D01*
X23909D01*
Y23607D01*
X24566D01*
Y23402D01*
X23863D01*
Y21148D01*
X24446D01*
X24566Y21147D01*
Y20927D01*
X23773D01*
Y19973D01*
Y19073D01*
X24566D01*
Y18853D01*
X24446Y18852D01*
X23863D01*
Y16598D01*
X24566D01*
Y14977D01*
X23973D01*
Y14927D01*
X23784D01*
Y15000D01*
X23763Y15109D01*
X23701Y15201D01*
X23382Y15520D01*
Y15576D01*
X23324Y15716D01*
X23216Y15824D01*
X23076Y15882D01*
X22924D01*
X22784Y15824D01*
X22676Y15716D01*
X22618Y15576D01*
X22500Y15598D01*
Y27000D01*
X27935D01*
Y25165D01*
D02*
G37*
G36*
X22676Y15284D02*
X22784Y15176D01*
X22924Y15118D01*
X22980D01*
X23067Y15031D01*
X23123Y14927D01*
X23123D01*
X23123Y14927D01*
Y14073D01*
X23973D01*
Y14023D01*
X24566D01*
Y13652D01*
X23598D01*
Y12348D01*
X24566D01*
Y11202D01*
X23398D01*
Y9398D01*
X24127D01*
X24175Y9281D01*
X24095Y9200D01*
X24036Y9113D01*
X24016Y9010D01*
Y6340D01*
X24036Y6237D01*
X24095Y6150D01*
X24566Y5678D01*
Y5500D01*
X22500D01*
Y15402D01*
X22618Y15424D01*
X22676Y15284D01*
D02*
G37*
%LPC*%
G36*
X58250Y34139D02*
X58101Y34110D01*
X57988Y34034D01*
X55762D01*
X55649Y34110D01*
X55500Y34139D01*
X55351Y34110D01*
X55225Y34025D01*
X55140Y33899D01*
X55111Y33750D01*
X55140Y33601D01*
X55225Y33475D01*
X55351Y33390D01*
X55500Y33361D01*
X55649Y33390D01*
X55762Y33466D01*
X56031D01*
X56069Y33339D01*
X55975Y33275D01*
X55890Y33149D01*
X55861Y33000D01*
X55890Y32851D01*
X55975Y32725D01*
X56101Y32640D01*
X56250Y32611D01*
X56399Y32640D01*
X56512Y32716D01*
X59738D01*
X59851Y32640D01*
X60000Y32611D01*
X60149Y32640D01*
X60275Y32725D01*
X60360Y32851D01*
X60389Y33000D01*
X60360Y33149D01*
X60275Y33275D01*
X60149Y33360D01*
X60000Y33389D01*
X59851Y33360D01*
X59738Y33284D01*
X58469D01*
X58431Y33411D01*
X58525Y33475D01*
X58610Y33601D01*
X58639Y33750D01*
X58610Y33899D01*
X58525Y34025D01*
X58399Y34110D01*
X58250Y34139D01*
D02*
G37*
G36*
X15952Y48777D02*
X14548D01*
Y47223D01*
X15952D01*
Y47716D01*
X16573D01*
Y47573D01*
X17346D01*
X17427Y47573D01*
X17554Y47573D01*
X18327D01*
Y47716D01*
X19138D01*
Y47523D01*
X20392D01*
Y48477D01*
X19138D01*
Y48284D01*
X18327D01*
Y48427D01*
X17554D01*
X17473Y48427D01*
X17346Y48427D01*
X16573D01*
Y48284D01*
X15952D01*
Y48777D01*
D02*
G37*
G36*
X58000Y47658D02*
X57830Y47635D01*
X57671Y47570D01*
X57535Y47465D01*
X57430Y47329D01*
X57365Y47170D01*
X57342Y47000D01*
X57365Y46830D01*
X57430Y46671D01*
X57535Y46535D01*
X57671Y46430D01*
X57830Y46365D01*
X58000Y46342D01*
X58170Y46365D01*
X58329Y46430D01*
X58465Y46535D01*
X58570Y46671D01*
X58635Y46830D01*
X58658Y47000D01*
X58635Y47170D01*
X58570Y47329D01*
X58465Y47465D01*
X58329Y47570D01*
X58170Y47635D01*
X58000Y47658D01*
D02*
G37*
G36*
X50500Y46389D02*
X50351Y46360D01*
X50238Y46284D01*
X26225D01*
X26116Y46263D01*
X26024Y46201D01*
X25249Y45426D01*
X25187Y45334D01*
X25166Y45225D01*
Y43517D01*
X25076Y43427D01*
X25023D01*
X24896Y43427D01*
X24123D01*
Y43309D01*
X22862D01*
Y43527D01*
X21608D01*
Y42573D01*
X22862D01*
Y42741D01*
X24123D01*
Y42573D01*
X24896D01*
X24977Y42573D01*
X25104Y42573D01*
X25877D01*
Y43427D01*
X25734D01*
Y45107D01*
X26343Y45716D01*
X50238D01*
X50351Y45640D01*
X50500Y45611D01*
X50649Y45640D01*
X50775Y45725D01*
X50860Y45851D01*
X50889Y46000D01*
X50860Y46149D01*
X50775Y46275D01*
X50649Y46360D01*
X50500Y46389D01*
D02*
G37*
G36*
X22862Y47527D02*
X21608D01*
Y46573D01*
X22862D01*
Y46741D01*
X24123D01*
Y46573D01*
X24896D01*
X24977Y46573D01*
X25104Y46573D01*
X25877D01*
Y46716D01*
X51882D01*
X53799Y44799D01*
X53891Y44737D01*
X54000Y44716D01*
X54738D01*
X54851Y44640D01*
X55000Y44611D01*
X55149Y44640D01*
X55275Y44725D01*
X55360Y44851D01*
X55389Y45000D01*
X55360Y45149D01*
X55275Y45275D01*
X55149Y45360D01*
X55000Y45389D01*
X54851Y45360D01*
X54738Y45284D01*
X54118D01*
X52201Y47201D01*
X52109Y47263D01*
X52000Y47284D01*
X25877D01*
Y47427D01*
X25104D01*
X25023Y47427D01*
X24896Y47427D01*
X24123D01*
Y47309D01*
X22862D01*
Y47527D01*
D02*
G37*
G36*
X68750Y44410D02*
X65000D01*
X64960Y44402D01*
X64548D01*
Y43598D01*
X64960D01*
X65000Y43590D01*
X68750D01*
X68907Y43621D01*
X69040Y43710D01*
X69129Y43843D01*
X69160Y44000D01*
X69129Y44157D01*
X69040Y44290D01*
X68907Y44379D01*
X68750Y44410D01*
D02*
G37*
G36*
X15952Y44777D02*
X14548D01*
Y43223D01*
X15952D01*
Y43716D01*
X16573D01*
Y43573D01*
X17346D01*
X17427Y43573D01*
X17554Y43573D01*
X18327D01*
Y43716D01*
X19138D01*
Y43523D01*
X20392D01*
Y44477D01*
X19138D01*
Y44284D01*
X18327D01*
Y44427D01*
X17554D01*
X17473Y44427D01*
X17346Y44427D01*
X16573D01*
Y44284D01*
X15952D01*
Y44777D01*
D02*
G37*
G36*
X75000Y49222D02*
X74505Y49183D01*
X74023Y49067D01*
X73565Y48877D01*
X73142Y48618D01*
X72764Y48296D01*
X72442Y47918D01*
X72183Y47495D01*
X71993Y47037D01*
X71877Y46555D01*
X71838Y46060D01*
X71877Y45565D01*
X71993Y45083D01*
X72183Y44625D01*
X72442Y44202D01*
X72764Y43824D01*
X73142Y43502D01*
X73565Y43243D01*
X74023Y43053D01*
X74505Y42937D01*
X75000Y42898D01*
X75495Y42937D01*
X75977Y43053D01*
X76435Y43243D01*
X76858Y43502D01*
X77236Y43824D01*
X77558Y44202D01*
X77817Y44625D01*
X78007Y45083D01*
X78123Y45565D01*
X78162Y46060D01*
X78123Y46555D01*
X78007Y47037D01*
X77817Y47495D01*
X77558Y47918D01*
X77236Y48296D01*
X76858Y48618D01*
X76435Y48877D01*
X75977Y49067D01*
X75495Y49183D01*
X75000Y49222D01*
D02*
G37*
G36*
X5000Y49162D02*
X4505Y49123D01*
X4023Y49007D01*
X3565Y48817D01*
X3142Y48558D01*
X2764Y48236D01*
X2442Y47858D01*
X2183Y47435D01*
X1993Y46977D01*
X1877Y46495D01*
X1838Y46000D01*
X1877Y45505D01*
X1993Y45023D01*
X2183Y44565D01*
X2442Y44142D01*
X2764Y43764D01*
X3142Y43442D01*
X3565Y43183D01*
X4023Y42993D01*
X4505Y42877D01*
X5000Y42838D01*
X5495Y42877D01*
X5977Y42993D01*
X6435Y43183D01*
X6858Y43442D01*
X7236Y43764D01*
X7558Y44142D01*
X7817Y44565D01*
X8007Y45023D01*
X8123Y45505D01*
X8162Y46000D01*
X8123Y46495D01*
X8007Y46977D01*
X7817Y47435D01*
X7558Y47858D01*
X7236Y48236D01*
X6858Y48558D01*
X6435Y48817D01*
X5977Y49007D01*
X5495Y49123D01*
X5000Y49162D01*
D02*
G37*
G36*
X5052Y37052D02*
X3348D01*
Y33948D01*
X5052D01*
Y34842D01*
X10000D01*
X10170Y34865D01*
X10329Y34930D01*
X10465Y35035D01*
X10570Y35171D01*
X10635Y35330D01*
X10658Y35500D01*
X10635Y35670D01*
X10570Y35829D01*
X10465Y35965D01*
X10329Y36070D01*
X10170Y36135D01*
X10000Y36158D01*
X7462D01*
Y36542D01*
X6538D01*
Y36158D01*
X5052D01*
Y37052D01*
D02*
G37*
G36*
X17500Y41244D02*
X17307Y41219D01*
X17128Y41145D01*
X16974Y41026D01*
X16855Y40872D01*
X16781Y40693D01*
X16756Y40500D01*
X16781Y40307D01*
X16809Y40241D01*
Y38377D01*
X16781Y38356D01*
X16620Y38145D01*
X16518Y37900D01*
X16483Y37637D01*
X16518Y37373D01*
X16620Y37128D01*
X16781Y36918D01*
X16809Y36897D01*
Y36558D01*
X16717D01*
Y34992D01*
Y34092D01*
X16819D01*
Y33713D01*
X16692D01*
Y30357D01*
X18348D01*
Y33713D01*
X18201D01*
Y34092D01*
X18283D01*
Y34992D01*
Y36558D01*
X18191D01*
Y36897D01*
X18219Y36918D01*
X18380Y37128D01*
X18482Y37373D01*
X18517Y37637D01*
X18482Y37900D01*
X18380Y38145D01*
X18219Y38356D01*
X18191Y38377D01*
Y40241D01*
X18219Y40307D01*
X18244Y40500D01*
X18219Y40693D01*
X18145Y40872D01*
X18026Y41026D01*
X17872Y41145D01*
X17693Y41219D01*
X17500Y41244D01*
D02*
G37*
G36*
X15000Y39744D02*
X14807Y39719D01*
X14628Y39645D01*
X14474Y39526D01*
X14355Y39372D01*
X14281Y39193D01*
X14256Y39000D01*
X14281Y38807D01*
X14299Y38765D01*
Y38377D01*
X14271Y38356D01*
X14110Y38145D01*
X14008Y37900D01*
X13973Y37637D01*
X14008Y37373D01*
X14110Y37128D01*
X14271Y36918D01*
X14299Y36897D01*
Y36558D01*
X14197D01*
Y34992D01*
Y34092D01*
X14289D01*
Y33713D01*
X14152D01*
Y30357D01*
X15808D01*
Y33713D01*
X15671D01*
Y34092D01*
X15763D01*
Y34992D01*
Y36558D01*
X15681D01*
Y36897D01*
X15709Y36918D01*
X15870Y37128D01*
X15972Y37373D01*
X16007Y37637D01*
X15972Y37900D01*
X15870Y38145D01*
X15709Y38356D01*
X15681Y38377D01*
Y38717D01*
X15719Y38807D01*
X15744Y39000D01*
X15719Y39193D01*
X15645Y39372D01*
X15526Y39526D01*
X15372Y39645D01*
X15193Y39719D01*
X15000Y39744D01*
D02*
G37*
G36*
X50782Y27427D02*
X49948D01*
Y25873D01*
X50782D01*
Y27427D01*
D02*
G37*
G36*
X71750Y23908D02*
X71580Y23885D01*
X71421Y23820D01*
X71285Y23715D01*
X71180Y23579D01*
X71115Y23420D01*
X71092Y23250D01*
X71115Y23080D01*
X71180Y22921D01*
X71285Y22785D01*
X71421Y22680D01*
X71580Y22615D01*
X71750Y22592D01*
X71920Y22615D01*
X72079Y22680D01*
X72215Y22785D01*
X72320Y22921D01*
X72385Y23080D01*
X72408Y23250D01*
X72385Y23420D01*
X72320Y23579D01*
X72215Y23715D01*
X72079Y23820D01*
X71920Y23885D01*
X71750Y23908D01*
D02*
G37*
G36*
X63650Y18264D02*
X61300D01*
X61270Y18252D01*
X61148D01*
Y18181D01*
X58769Y15802D01*
X58652Y15851D01*
Y16902D01*
X57348D01*
Y16484D01*
X57299Y16451D01*
X56919Y16072D01*
X56802Y16120D01*
Y16902D01*
X55198D01*
Y16524D01*
X55141Y16513D01*
X55049Y16451D01*
X54799Y16201D01*
X54737Y16109D01*
X54716Y16000D01*
Y14868D01*
X54653Y14805D01*
X53045D01*
Y14145D01*
Y13495D01*
Y12733D01*
X53033Y12703D01*
Y12347D01*
X53045Y12317D01*
Y12083D01*
X53033Y12053D01*
Y11697D01*
X53045Y11667D01*
Y11545D01*
X53167D01*
X53197Y11533D01*
X54735D01*
X55085Y11182D01*
Y10818D01*
X54932Y10665D01*
X54000D01*
X53884Y10616D01*
X53634Y10366D01*
X53585Y10250D01*
Y5165D01*
X52000D01*
X51884Y5116D01*
X51855Y5048D01*
X51702Y4984D01*
X51466Y4804D01*
X51286Y4568D01*
X51172Y4294D01*
X51133Y4000D01*
X51172Y3706D01*
X51286Y3432D01*
X51466Y3196D01*
X51702Y3016D01*
X51855Y2952D01*
X51884Y2884D01*
X52000Y2835D01*
X56500D01*
X56616Y2884D01*
X57116Y3384D01*
X57165Y3500D01*
Y11500D01*
X57116Y11616D01*
X56899Y11833D01*
X56952Y11960D01*
X57348D01*
Y11645D01*
X58652D01*
Y11960D01*
X60379D01*
X60431Y11833D01*
X59799Y11201D01*
X59737Y11109D01*
X59716Y11000D01*
Y10027D01*
X59398D01*
Y8823D01*
X59716D01*
Y8427D01*
X59573D01*
Y7573D01*
X60427D01*
Y8427D01*
X60284D01*
Y8823D01*
X60602D01*
Y10027D01*
X60284D01*
Y10882D01*
X61536Y12134D01*
X61663Y12081D01*
Y11998D01*
X62435D01*
X62465Y11985D01*
X64185D01*
X64215Y11998D01*
X64337D01*
Y12120D01*
X64350Y12150D01*
Y17565D01*
X64301Y17681D01*
X63766Y18216D01*
X63650Y18264D01*
D02*
G37*
G36*
X45000Y13158D02*
X44830Y13135D01*
X44671Y13070D01*
X44535Y12965D01*
X44430Y12829D01*
X44365Y12670D01*
X44342Y12500D01*
X44365Y12330D01*
X44430Y12171D01*
X44535Y12035D01*
X44671Y11930D01*
X44830Y11865D01*
X45000Y11842D01*
X45170Y11865D01*
X45329Y11930D01*
X45465Y12035D01*
X45570Y12171D01*
X45635Y12330D01*
X45658Y12500D01*
X45635Y12670D01*
X45570Y12829D01*
X45465Y12965D01*
X45329Y13070D01*
X45170Y13135D01*
X45000Y13158D01*
D02*
G37*
G36*
X70058Y11620D02*
X67815D01*
X67785Y11607D01*
X67663D01*
Y11485D01*
X67650Y11455D01*
Y5860D01*
X67699Y5744D01*
X68135Y5307D01*
Y4017D01*
X68133Y4000D01*
X68172Y3706D01*
X68286Y3432D01*
X68466Y3196D01*
X68702Y3016D01*
X68976Y2902D01*
X69270Y2863D01*
X69564Y2902D01*
X69838Y3016D01*
X70074Y3196D01*
X70254Y3432D01*
X70368Y3706D01*
X70407Y4000D01*
X70368Y4294D01*
X70350Y4339D01*
Y11328D01*
X70337Y11358D01*
Y11607D01*
X70088D01*
X70058Y11620D01*
D02*
G37*
G36*
X64185D02*
X61815D01*
X61785Y11607D01*
X61663D01*
Y11485D01*
X61650Y11455D01*
Y5935D01*
X61699Y5819D01*
X62085Y5432D01*
Y4000D01*
X62134Y3884D01*
X62149Y3877D01*
X62172Y3706D01*
X62286Y3432D01*
X62466Y3196D01*
X62702Y3016D01*
X62976Y2902D01*
X63270Y2863D01*
X63564Y2902D01*
X63838Y3016D01*
X64074Y3196D01*
X64254Y3432D01*
X64368Y3706D01*
X64407Y4000D01*
X64368Y4294D01*
X64350Y4339D01*
Y11455D01*
X64337Y11485D01*
Y11607D01*
X64215D01*
X64185Y11620D01*
D02*
G37*
G36*
X48803Y11567D02*
X44903D01*
X44786Y11519D01*
X44384Y11116D01*
X44335Y11000D01*
Y3500D01*
X44384Y3384D01*
X44884Y2884D01*
X45000Y2835D01*
X50750D01*
X50841Y2873D01*
X50857D01*
Y2880D01*
X50866Y2884D01*
X50915Y3000D01*
Y5000D01*
X50866Y5116D01*
X50857Y5120D01*
Y5127D01*
X50841D01*
X50750Y5165D01*
X48415D01*
Y10335D01*
X48750D01*
X48866Y10384D01*
X48919Y10437D01*
X48967Y10553D01*
Y11403D01*
X48955Y11433D01*
Y11555D01*
X48833D01*
X48803Y11567D01*
D02*
G37*
G36*
X75000Y8162D02*
X74505Y8123D01*
X74023Y8007D01*
X73565Y7817D01*
X73142Y7558D01*
X72764Y7236D01*
X72442Y6858D01*
X72183Y6435D01*
X71993Y5977D01*
X71877Y5495D01*
X71838Y5000D01*
X71877Y4505D01*
X71993Y4023D01*
X72183Y3565D01*
X72442Y3142D01*
X72764Y2764D01*
X73142Y2442D01*
X73565Y2183D01*
X74023Y1993D01*
X74505Y1877D01*
X75000Y1838D01*
X75495Y1877D01*
X75977Y1993D01*
X76435Y2183D01*
X76858Y2442D01*
X77236Y2764D01*
X77558Y3142D01*
X77817Y3565D01*
X78007Y4023D01*
X78123Y4505D01*
X78162Y5000D01*
X78123Y5495D01*
X78007Y5977D01*
X77817Y6435D01*
X77558Y6858D01*
X77236Y7236D01*
X76858Y7558D01*
X76435Y7817D01*
X75977Y8007D01*
X75495Y8123D01*
X75000Y8162D01*
D02*
G37*
%LPD*%
G36*
X64185Y17565D02*
Y12150D01*
X62465D01*
Y13000D01*
X62387D01*
Y13002D01*
X61663D01*
Y13000D01*
X61325D01*
X60450Y12125D01*
X56875D01*
X56653Y12347D01*
X53197D01*
Y12703D01*
X54953D01*
X55716Y13466D01*
X56750D01*
X56859Y13487D01*
X56951Y13549D01*
X57201Y13799D01*
X57263Y13891D01*
X57284Y14000D01*
Y14034D01*
X57500Y14250D01*
Y15400D01*
X58600D01*
X58648Y15448D01*
X58652D01*
Y15452D01*
X61300Y18100D01*
X63650D01*
X64185Y17565D01*
D02*
G37*
G36*
X57000Y11500D02*
Y3500D01*
X56500Y3000D01*
X52000D01*
Y5000D01*
X53750D01*
Y10250D01*
X54000Y10500D01*
X55000D01*
X55250Y10750D01*
Y11250D01*
X54803Y11697D01*
X53197D01*
Y12053D01*
X56447D01*
X57000Y11500D01*
D02*
G37*
G36*
X70185Y11328D02*
Y4060D01*
X70160Y4000D01*
X68300D01*
Y5375D01*
X67815Y5860D01*
Y11455D01*
X70058D01*
X70185Y11328D01*
D02*
G37*
G36*
X64185Y4065D02*
X64158Y4000D01*
X62250D01*
Y5500D01*
X61815Y5935D01*
Y11455D01*
X64185D01*
Y4065D01*
D02*
G37*
G36*
X48803Y10553D02*
X48750Y10500D01*
X48250D01*
Y5000D01*
X50750D01*
Y3000D01*
X45000D01*
X44500Y3500D01*
Y11000D01*
X44903Y11403D01*
X48803D01*
Y10553D01*
D02*
G37*
%LPC*%
G36*
X11336Y18129D02*
X11164D01*
X10998Y18084D01*
X10850Y17999D01*
X10728Y17877D01*
X10642Y17728D01*
X10598Y17563D01*
Y17391D01*
X10642Y17225D01*
X10728Y17076D01*
X10850Y16955D01*
X10998Y16869D01*
X11164Y16825D01*
X11336D01*
X11502Y16869D01*
X11650Y16955D01*
X11772Y17076D01*
X11858Y17225D01*
X11902Y17391D01*
Y17563D01*
X11858Y17728D01*
X11772Y17877D01*
X11650Y17999D01*
X11502Y18084D01*
X11336Y18129D01*
D02*
G37*
G36*
X14252Y13827D02*
X12948D01*
Y13284D01*
X12422D01*
Y13462D01*
X11458D01*
Y12538D01*
X12422D01*
Y12716D01*
X12948D01*
Y12173D01*
X13216D01*
Y11756D01*
X13176Y11716D01*
X13118Y11576D01*
Y11424D01*
X13176Y11284D01*
X13284Y11176D01*
X13424Y11118D01*
X13576D01*
X13716Y11176D01*
X13824Y11284D01*
X13882Y11424D01*
Y11576D01*
X13824Y11716D01*
X13784Y11756D01*
Y12173D01*
X14252D01*
Y13827D01*
D02*
G37*
G36*
X19552D02*
X18248D01*
Y12173D01*
X18716D01*
Y11756D01*
X18676Y11716D01*
X18618Y11576D01*
Y11424D01*
X18676Y11284D01*
X18784Y11176D01*
X18924Y11118D01*
X19076D01*
X19216Y11176D01*
X19324Y11284D01*
X19382Y11424D01*
Y11576D01*
X19324Y11716D01*
X19284Y11756D01*
Y12173D01*
X19552D01*
Y13827D01*
D02*
G37*
%LPD*%
D11*
X55250Y35750D02*
X60500D01*
X56750Y36250D02*
X60500D01*
X59500Y37500D02*
X59698Y37302D01*
X58152Y36750D02*
X60500D01*
X60448Y37302D02*
X60500Y37250D01*
X59698Y37302D02*
X60448D01*
X436524Y211664D02*
X437691D01*
D19*
X73550Y35050D02*
Y35900D01*
X73190Y34690D02*
X73550Y35050D01*
X73190Y34000D02*
Y34690D01*
X71950Y38950D02*
X72310Y39310D01*
Y40000D01*
X71950Y38100D02*
Y38950D01*
X69066Y36816D02*
X72759D01*
X69000Y36750D02*
X69066Y36816D01*
X72759D02*
X73550Y36025D01*
X71900Y37400D02*
Y38050D01*
X71950Y38100D01*
X71750Y37250D02*
X71900Y37400D01*
X69000Y37250D02*
X71750D01*
X73550Y35900D02*
Y36025D01*
D20*
X4200Y35500D02*
X10000D01*
X54396Y31846D02*
X56491Y29750D01*
X48491Y37750D02*
X54396Y31846D01*
X40000Y37750D02*
X48491D01*
X63000Y26500D02*
X68720D01*
X56991Y29250D02*
X60250D01*
X63000Y26500D01*
X56491Y29750D02*
X56991Y29250D01*
X29775Y37750D02*
X40000D01*
X29750Y37775D02*
X29775Y37750D01*
X35750Y35500D02*
X37000D01*
X33454D02*
X35500D01*
X2336Y21000D02*
X10500D01*
X1750Y21586D02*
Y23730D01*
Y21586D02*
X2336Y21000D01*
X1775Y28925D02*
X1845Y28855D01*
X4205D01*
X4250Y28810D01*
X1775Y28925D02*
Y35475D01*
X1800Y35500D01*
X1750Y23730D02*
X4250D01*
X1750D02*
Y26100D01*
D21*
X76000Y19500D02*
D03*
D22*
X74095Y16630D02*
D03*
X75365D02*
D03*
X76635D02*
D03*
X77905D02*
D03*
X74095Y22370D02*
D03*
X75365D02*
D03*
X76635D02*
D03*
X77905D02*
D03*
D23*
X73550Y35900D02*
D03*
Y38100D02*
D03*
X71950D02*
D03*
Y35900D02*
D03*
D24*
X51000Y13500D02*
D03*
D25*
X53927Y15775D02*
D03*
Y15125D02*
D03*
Y14475D02*
D03*
Y13825D02*
D03*
Y13175D02*
D03*
Y12525D02*
D03*
Y11875D02*
D03*
Y11225D02*
D03*
X48073D02*
D03*
Y11875D02*
D03*
Y12525D02*
D03*
Y13175D02*
D03*
Y13825D02*
D03*
Y14475D02*
D03*
Y15125D02*
D03*
Y15775D02*
D03*
D26*
X20060Y32035D02*
D03*
X17520D02*
D03*
X14980D02*
D03*
X12440D02*
D03*
Y22965D02*
D03*
X14980D02*
D03*
X17520D02*
D03*
X20060D02*
D03*
D27*
X26905Y31607D02*
D03*
X25635D02*
D03*
X24365D02*
D03*
X23095D02*
D03*
Y24393D02*
D03*
X24365D02*
D03*
X25635D02*
D03*
X26905D02*
D03*
D28*
X69000Y34750D02*
D03*
Y35250D02*
D03*
Y35750D02*
D03*
Y36250D02*
D03*
Y36750D02*
D03*
Y37250D02*
D03*
Y37750D02*
D03*
Y38250D02*
D03*
Y38750D02*
D03*
Y39250D02*
D03*
Y39750D02*
D03*
Y40250D02*
D03*
X60500D02*
D03*
Y39750D02*
D03*
Y39250D02*
D03*
Y38750D02*
D03*
Y38250D02*
D03*
Y37750D02*
D03*
Y37250D02*
D03*
Y36750D02*
D03*
Y36250D02*
D03*
Y35750D02*
D03*
Y35250D02*
D03*
Y34750D02*
D03*
D29*
X67500Y41750D02*
D03*
X67000D02*
D03*
X66500D02*
D03*
X66000D02*
D03*
X65500D02*
D03*
X65000D02*
D03*
X64500D02*
D03*
X64000D02*
D03*
X63500D02*
D03*
X63000D02*
D03*
X62500D02*
D03*
X62000D02*
D03*
Y33250D02*
D03*
X62500D02*
D03*
X63000D02*
D03*
X63500D02*
D03*
X64000D02*
D03*
X64500D02*
D03*
X65000D02*
D03*
X65500D02*
D03*
X66000D02*
D03*
X66500D02*
D03*
X67000D02*
D03*
X67500D02*
D03*
D30*
X52905Y26650D02*
D03*
X51635D02*
D03*
X50365D02*
D03*
X49095D02*
D03*
X52905Y21350D02*
D03*
X51635D02*
D03*
X50365D02*
D03*
X49095D02*
D03*
D31*
X29000Y44000D02*
D03*
X76000Y14500D02*
D03*
X68750Y24500D02*
D03*
X72500Y8750D02*
D03*
X47250Y31750D02*
D03*
X60000Y14250D02*
D03*
Y23750D02*
D03*
X41500Y35000D02*
D03*
X43250Y33000D02*
D03*
X30250Y41750D02*
D03*
X17500Y37637D02*
D03*
X14990D02*
D03*
X54266Y29750D02*
D03*
X50250D02*
D03*
X45000Y12500D02*
D03*
X11250Y17477D02*
D03*
X71750Y23250D02*
D03*
X58000Y47000D02*
D03*
D32*
X54560Y21350D02*
D03*
X55440D02*
D03*
X71190Y16250D02*
D03*
X70310D02*
D03*
X75590Y26750D02*
D03*
X76470D02*
D03*
X58940Y34750D02*
D03*
X58060D02*
D03*
X68810Y33000D02*
D03*
X69690D02*
D03*
X72310Y40000D02*
D03*
X73190D02*
D03*
X73190Y34000D02*
D03*
X72310D02*
D03*
X11940Y13000D02*
D03*
X11060D02*
D03*
D33*
X16885Y15725D02*
D03*
X15615D02*
D03*
Y20275D02*
D03*
X16885D02*
D03*
X25635Y17725D02*
D03*
X24365D02*
D03*
Y22275D02*
D03*
X25635D02*
D03*
D34*
X10250Y28900D02*
D03*
Y26100D02*
D03*
X1750Y28900D02*
D03*
Y26100D02*
D03*
X37500Y29900D02*
D03*
Y27100D02*
D03*
X29000Y29400D02*
D03*
Y26600D02*
D03*
D35*
X70500Y38658D02*
D03*
Y39538D02*
D03*
X69750Y48810D02*
D03*
Y49690D02*
D03*
X3500Y20440D02*
D03*
Y19560D02*
D03*
X7000Y36060D02*
D03*
Y36940D02*
D03*
X35750Y35810D02*
D03*
Y36690D02*
D03*
X72250Y12440D02*
D03*
Y11560D02*
D03*
X77905Y25691D02*
D03*
Y24811D02*
D03*
X76635Y24816D02*
D03*
Y25696D02*
D03*
X71831Y25688D02*
D03*
Y24808D02*
D03*
X63500Y43060D02*
D03*
Y43940D02*
D03*
X62000Y43060D02*
D03*
Y43940D02*
D03*
X28250Y24190D02*
D03*
Y23310D02*
D03*
X24365Y34865D02*
D03*
Y35745D02*
D03*
X29500Y24190D02*
D03*
Y23310D02*
D03*
X19000Y21060D02*
D03*
Y20180D02*
D03*
X20060Y34865D02*
D03*
Y35745D02*
D03*
D36*
X69750Y46050D02*
D03*
Y46950D02*
D03*
X75365Y24801D02*
D03*
Y25701D02*
D03*
X72975Y24796D02*
D03*
Y25696D02*
D03*
X74095Y24792D02*
D03*
Y25692D02*
D03*
X51635Y31700D02*
D03*
Y30800D02*
D03*
X52905Y31700D02*
D03*
Y30800D02*
D03*
X66500Y31700D02*
D03*
Y30800D02*
D03*
X25750Y19550D02*
D03*
Y20450D02*
D03*
X26905Y34865D02*
D03*
Y35765D02*
D03*
X25635Y34865D02*
D03*
Y35765D02*
D03*
X24250Y19550D02*
D03*
Y20450D02*
D03*
X16885Y17550D02*
D03*
Y18450D02*
D03*
X14980Y34875D02*
D03*
Y35775D02*
D03*
X17500Y34875D02*
D03*
Y35775D02*
D03*
X15615Y17550D02*
D03*
Y18450D02*
D03*
D37*
X4200Y35500D02*
D03*
X1800D02*
D03*
X33454D02*
D03*
X31054D02*
D03*
D38*
X69000Y10600D02*
D03*
X63000D02*
D03*
D39*
X69975Y9500D02*
D03*
X69325D02*
D03*
X68675D02*
D03*
X68025D02*
D03*
Y12500D02*
D03*
X68675D02*
D03*
X69325D02*
D03*
X69975D02*
D03*
X63975Y9500D02*
D03*
X63325D02*
D03*
X62675D02*
D03*
X62025D02*
D03*
Y12500D02*
D03*
X62675D02*
D03*
X63325D02*
D03*
X63975D02*
D03*
D40*
X74000Y12650D02*
D03*
Y10850D02*
D03*
X76000Y12650D02*
D03*
Y10850D02*
D03*
X78000Y12650D02*
D03*
Y10850D02*
D03*
X56000Y16400D02*
D03*
Y14600D02*
D03*
D41*
X66000Y12575D02*
D03*
Y9425D02*
D03*
X60000Y12575D02*
D03*
Y9425D02*
D03*
D42*
X71935Y19500D02*
D03*
X69565D02*
D03*
D43*
X66000Y8000D02*
D03*
X66900D02*
D03*
X60000D02*
D03*
X60900D02*
D03*
X17000Y48000D02*
D03*
X17900D02*
D03*
X17000Y44000D02*
D03*
X17900D02*
D03*
X25450Y47000D02*
D03*
X24550D02*
D03*
X25450Y43000D02*
D03*
X24550D02*
D03*
X24450Y14500D02*
D03*
X23550D02*
D03*
X28585Y37500D02*
D03*
X27685D02*
D03*
X24050D02*
D03*
X24950D02*
D03*
X25550Y14500D02*
D03*
X26450D02*
D03*
D44*
X67900Y16500D02*
D03*
X66100D02*
D03*
X67900Y18500D02*
D03*
X66100D02*
D03*
X67900Y20500D02*
D03*
X66100D02*
D03*
X67900Y22500D02*
D03*
X66100D02*
D03*
D45*
X58000Y16175D02*
D03*
Y14825D02*
D03*
Y11022D02*
D03*
Y12372D02*
D03*
D46*
X62000Y16600D02*
D03*
Y21400D02*
D03*
D47*
X65000Y44000D02*
D03*
Y43000D02*
D03*
X68750Y27000D02*
D03*
Y28000D02*
D03*
D48*
X70425Y31250D02*
D03*
X69075D02*
D03*
D49*
X12750Y48000D02*
D03*
X15250D02*
D03*
X12750Y44000D02*
D03*
X15250D02*
D03*
D50*
X22235Y47050D02*
D03*
Y48950D02*
D03*
X19765Y48000D02*
D03*
X22235Y43050D02*
D03*
Y44950D02*
D03*
X19765Y44000D02*
D03*
D51*
X24225Y13000D02*
D03*
X25775D02*
D03*
D52*
X25000Y8200D02*
D03*
X24050Y10300D02*
D03*
X25950D02*
D03*
X16250Y8200D02*
D03*
X15300Y10300D02*
D03*
X17200D02*
D03*
D53*
X18900Y13000D02*
D03*
X17100D02*
D03*
X13600D02*
D03*
X15400D02*
D03*
D86*
X5000Y46000D02*
D03*
X75000Y46060D02*
D03*
Y5000D02*
D03*
X5000D02*
D03*
D90*
X52725Y44275D02*
X59500Y37500D01*
X29450Y44275D02*
X52725D01*
X29000Y44000D02*
X29175D01*
X29450Y44275D01*
X25635Y40635D02*
X29000Y44000D01*
X35200Y40375D02*
X52625D01*
X56750Y36250D01*
X34850Y40725D02*
X35200Y40375D01*
X51250Y39000D02*
X52000D01*
X55250Y35750D01*
X17500Y37637D02*
Y40500D01*
Y35775D02*
Y37637D01*
X14990D02*
Y38990D01*
Y35785D02*
Y37637D01*
X52402Y42500D02*
X58152Y36750D01*
X30250Y41750D02*
X31000Y42500D01*
X26905Y38405D02*
X30250Y41750D01*
X31000Y42500D02*
X52402D01*
X14980Y35775D02*
X14990Y35785D01*
Y38990D02*
X15000Y39000D01*
X25635Y37500D02*
Y40635D01*
X26905Y37500D02*
Y38405D01*
Y35765D02*
Y37500D01*
X27685D01*
X25635Y35765D02*
Y37500D01*
X24950D02*
X25635D01*
X26905Y31607D02*
Y34865D01*
X25635Y31607D02*
Y34865D01*
X14980Y32035D02*
Y34875D01*
X17510Y32045D02*
Y34865D01*
X17500Y34875D02*
X17510Y34865D01*
Y32045D02*
X17520Y32035D01*
D91*
X69000Y41403D02*
X69750Y42153D01*
Y46050D01*
X62000Y41750D02*
X62000Y41750D01*
X62250Y34750D02*
Y40250D01*
X62000Y40500D02*
X62250Y40250D01*
X62000Y40500D02*
Y40750D01*
X62000Y40750D01*
Y41750D01*
X62250Y34750D02*
X66950D01*
X61644D02*
X62250D01*
X69000Y41000D02*
Y41403D01*
Y34000D02*
Y34750D01*
X41500Y33750D02*
Y35000D01*
X42000Y33000D02*
X43250D01*
X26225Y46000D02*
X50500D01*
X25450Y43000D02*
Y45225D01*
X26225Y46000D01*
X54250Y31700D02*
X54396Y31846D01*
X52905Y31700D02*
X54250D01*
X51635D02*
X52905D01*
X55500Y33750D02*
X58250D01*
X56250Y33000D02*
X60000D01*
X41000Y16200D02*
Y32000D01*
X42000Y33000D01*
X40500Y32750D02*
X41500Y33750D01*
X40500Y15950D02*
Y32750D01*
X71834Y24805D02*
X71837Y24802D01*
X71831Y24808D02*
X71834Y24805D01*
X53780Y30437D02*
X54266Y29952D01*
X53741Y30750D02*
X53780Y30711D01*
X54266Y29750D02*
Y29952D01*
X53780Y30437D02*
Y30711D01*
X50250Y29952D02*
X50711Y30412D01*
Y30711D02*
X50750Y30750D01*
X50250Y29750D02*
Y29952D01*
X50711Y30412D02*
Y30711D01*
X66000Y32200D02*
X66500Y31700D01*
X66000Y32200D02*
Y33250D01*
X70500Y38000D02*
Y38658D01*
X75500Y31270D02*
Y32500D01*
X75000Y33000D02*
X75500Y32500D01*
X71500Y33000D02*
X75000D01*
X70500Y34000D02*
X71500Y33000D01*
X70500Y34000D02*
Y35500D01*
X70194Y37750D02*
X70444Y38000D01*
X69000Y37750D02*
X70194D01*
X70444Y38000D02*
X70500D01*
X54317Y21350D02*
X54500Y21533D01*
X54560Y21350D02*
Y27819D01*
X56491Y29750D01*
X54317Y21350D02*
X54560D01*
X52905D02*
X54317D01*
X29419Y37500D02*
X29694Y37775D01*
X28585Y37500D02*
X29419D01*
X29694Y37775D02*
X29750D01*
X22750Y37750D02*
X22806D01*
X23056Y37500D02*
X24050D01*
X22806Y37750D02*
X23056Y37500D01*
X56250Y31500D02*
X60500D01*
X57000Y30991D02*
X60259D01*
X61250Y30000D01*
X60500Y31500D02*
X61250Y30750D01*
X62000Y30000D02*
X63250Y28750D01*
X62000Y30000D02*
Y33250D01*
X63000Y31056D02*
X63250Y30806D01*
X63000Y31056D02*
Y33250D01*
X63250Y30750D02*
Y30806D01*
X50775Y30775D02*
X51610D01*
X51635Y30800D01*
X50750Y30750D02*
X50775Y30775D01*
X52930D02*
X53716D01*
X52905Y30800D02*
X52930Y30775D01*
X53716D02*
X53741Y30750D01*
X51635Y26650D02*
Y30800D01*
X52905Y26650D02*
Y30800D01*
X45250Y14500D02*
X46575Y13175D01*
X48073D01*
X69750Y48000D02*
Y48810D01*
Y46950D02*
Y48000D01*
Y48810D02*
X69755Y48805D01*
X67500Y33250D02*
X68230D01*
X67500D02*
Y34200D01*
X58940Y34750D02*
X60500D01*
X61644D02*
X61644Y34750D01*
X60500Y34750D02*
X61644D01*
X62000Y41750D02*
Y43060D01*
X71331Y29250D02*
X72081Y30000D01*
X76770D01*
X63750Y29250D02*
X71331D01*
X65250Y29750D02*
X71211D01*
X72731Y31270D02*
X72960D01*
X71211Y29750D02*
X72731Y31270D01*
X26905Y23095D02*
Y24393D01*
X27500Y15500D02*
Y22500D01*
X26905Y23095D02*
X27500Y22500D01*
X23000Y15500D02*
Y15500D01*
Y15500D02*
X23500Y15000D01*
Y14550D02*
Y15000D01*
Y14550D02*
X23550Y14500D01*
X61817Y42877D02*
X62000Y43060D01*
X66950Y34750D02*
X67500Y34200D01*
X25450Y47000D02*
X52000D01*
X54000Y45000D02*
X55000D01*
X52000Y47000D02*
X54000Y45000D01*
X13500Y11500D02*
Y12900D01*
X13600Y13000D01*
X18900D02*
X19000Y12900D01*
Y11500D02*
Y12900D01*
X11940Y13000D02*
X13600D01*
X67900Y24190D02*
X69397Y25688D01*
X40000Y15700D02*
X41200Y14500D01*
X40000Y15700D02*
Y37750D01*
X40500Y15950D02*
X41325Y15125D01*
X41000Y16200D02*
X41425Y15775D01*
X48073D01*
X15250Y48000D02*
X17000D01*
X17900D02*
X19765D01*
X22260Y47025D02*
X24525D01*
X22235Y47050D02*
X22260Y47025D01*
X24525D02*
X24550Y47000D01*
X22235Y43050D02*
X22260Y43025D01*
X24525D01*
X24550Y43000D01*
X17900Y44000D02*
X19765D01*
X15250D02*
X17000D01*
X41200Y14500D02*
X45250D01*
X41325Y15125D02*
X48073D01*
X65500Y30500D02*
Y33250D01*
X53670Y48000D02*
X55170Y49500D01*
X62330D01*
X63830Y48000D01*
X69750Y46950D02*
X69755Y46945D01*
X63830Y48000D02*
X69750D01*
X63750Y36250D02*
X69000D01*
X63000Y35500D02*
X63750Y36250D01*
X64306Y35750D02*
X69000D01*
X64056Y35500D02*
X64306Y35750D01*
X64000Y35500D02*
X64056D01*
X68480Y33000D02*
X68810D01*
X68230Y33250D02*
X68480Y33000D01*
X64750Y32000D02*
Y32056D01*
X64504Y31289D02*
X64711D01*
X64750Y31250D01*
X63500Y31500D02*
X65250Y29750D01*
X64500Y32306D02*
X64750Y32056D01*
X64305Y31489D02*
X64504Y31289D01*
X68810Y31515D02*
Y33000D01*
X63676Y29324D02*
X63750Y29250D01*
X62500Y30500D02*
X63676Y29324D01*
X76770Y30000D02*
X78040Y28730D01*
X68810Y31515D02*
X69075Y31250D01*
X69956Y28750D02*
X70456Y28250D01*
X63250Y28750D02*
X69956D01*
X70456Y28250D02*
X70500D01*
X64305Y31489D02*
X64305D01*
X64000Y31794D02*
X64305Y31489D01*
X64500Y32306D02*
Y33250D01*
X63500Y31500D02*
Y33250D01*
X62500Y30500D02*
Y33250D01*
X64000Y31794D02*
Y33250D01*
X65500Y33250D02*
X65500Y33250D01*
X63000Y33250D02*
X63000Y33250D01*
X68720Y28030D02*
X68750Y28000D01*
X63530Y43030D02*
X64970D01*
X63500Y43060D02*
X63530Y43030D01*
X64970D02*
X65000Y43000D01*
X64000Y41750D02*
Y43000D01*
X63500Y41750D02*
Y43060D01*
X75463Y25799D02*
Y26403D01*
X75365Y25701D02*
X75463Y25799D01*
Y26403D02*
X75560Y26500D01*
X71171Y16250D02*
X73822D01*
X74095Y16523D02*
Y16630D01*
X73822Y16250D02*
X74095Y16523D01*
X78250Y19500D02*
X79000Y20250D01*
X76000Y19500D02*
X78250D01*
X79000Y20250D02*
Y25500D01*
X77905Y25691D02*
X78809D01*
X79000Y25500D01*
X77905Y22370D02*
Y24811D01*
X76635Y22370D02*
Y24816D01*
X75365Y22370D02*
Y24801D01*
X74095Y22370D02*
Y24792D01*
X72977Y24794D02*
X74093D01*
X74095Y24792D01*
X72975Y24796D02*
X72977Y24794D01*
X71837Y24802D02*
X72969D01*
X72975Y24796D01*
X67900Y22500D02*
Y24190D01*
X69397Y25688D02*
X71831D01*
X72975Y25696D02*
X73116Y25837D01*
X72971Y25692D02*
X72975Y25696D01*
X71831Y25688D02*
X71835Y25692D01*
X72971D01*
X54925Y13825D02*
X55700Y14600D01*
X53927Y13825D02*
X54925D01*
X55000Y16000D02*
X55250Y16250D01*
X55850D02*
X56000Y16400D01*
X55250Y16250D02*
X55850D01*
X55000Y14750D02*
Y16000D01*
X54750Y14500D02*
X55000Y14750D01*
X53952Y14500D02*
X54750D01*
X53927Y14475D02*
X53952Y14500D01*
X55700Y14600D02*
X56000D01*
X54925Y13175D02*
X55500Y13750D01*
X56750D01*
X57000Y15750D02*
X57500Y16250D01*
X57925D01*
X58000Y16175D01*
X57000Y14000D02*
Y15750D01*
X56750Y13750D02*
X57000Y14000D01*
X53927Y13175D02*
X54925D01*
X60000Y8000D02*
Y9425D01*
Y11000D01*
X61500Y12500D01*
X62025D01*
X66000Y8000D02*
Y9425D01*
X67500Y12500D02*
X68025D01*
X66000Y11000D02*
X67500Y12500D01*
X66000Y9425D02*
Y11000D01*
D92*
X16414Y9562D02*
Y10300D01*
Y9562D02*
X16966Y9010D01*
X15534D02*
X16086Y9562D01*
Y10300D01*
X16499Y5021D02*
Y5811D01*
Y5021D02*
X17520Y4000D01*
X25164Y14500D02*
Y16846D01*
Y13000D02*
Y14500D01*
X25550D01*
X24836D02*
Y16846D01*
Y13000D02*
Y14500D01*
X24450D02*
X24836D01*
X25164Y10300D02*
Y13000D01*
X25775D01*
X24836Y10300D02*
Y13000D01*
X24225D02*
X24836D01*
X25164Y9560D02*
Y10300D01*
X25950D01*
X24836Y9560D02*
Y10300D01*
X24050D02*
X24836D01*
X25164Y4434D02*
Y5810D01*
X25715Y6360D02*
Y9010D01*
X25164Y5810D02*
X25715Y6360D01*
X24836Y4969D02*
Y5790D01*
X24285Y6340D02*
Y9010D01*
Y6340D02*
X24836Y5790D01*
X25635Y21707D02*
Y22275D01*
X25397Y21469D02*
X25635Y21707D01*
X25164Y21396D02*
X25237Y21469D01*
X25397D01*
X25164Y21011D02*
Y21396D01*
X25164Y21011D02*
X25164Y21011D01*
X25164Y20523D02*
X25237Y20450D01*
X25750D01*
X25164Y20523D02*
Y21011D01*
X24763Y21469D02*
X24836Y21396D01*
Y21147D02*
Y21396D01*
X24603Y21469D02*
X24763D01*
X24836Y21147D02*
X24836Y21147D01*
X24763Y20450D02*
X24836Y20523D01*
Y21147D01*
X24365Y21707D02*
X24603Y21469D01*
X24365Y21707D02*
Y22275D01*
X24250Y20450D02*
X24763D01*
X24603Y23081D02*
X24763D01*
X24836Y23154D01*
Y24320D01*
X25237Y23081D02*
X25397D01*
X25164Y23154D02*
X25237Y23081D01*
X25397D02*
X25635Y22843D01*
X25164Y23154D02*
Y24320D01*
X24365Y22275D02*
Y22843D01*
X25164Y24320D02*
X25237Y24393D01*
X25635Y22275D02*
Y22843D01*
X24365Y24393D02*
X24763D01*
X25237D02*
X25635D01*
X24365Y22843D02*
X24603Y23081D01*
X24763Y24393D02*
X24836Y24320D01*
X25635Y17157D02*
Y17725D01*
X25397Y16919D02*
X25635Y17157D01*
X25921Y4349D02*
X26270Y4000D01*
X25164Y9560D02*
X25715Y9010D01*
X25237Y16919D02*
X25397D01*
X25164Y16846D02*
X25237Y16919D01*
X25249Y4349D02*
X25921D01*
X25164Y4434D02*
X25249Y4349D01*
X24603Y16919D02*
X24763D01*
X24365Y17157D02*
X24603Y16919D01*
X24763D02*
X24836Y16846D01*
X24365Y17157D02*
Y17725D01*
X24763Y4896D02*
X24836Y4969D01*
X24285Y9010D02*
X24836Y9560D01*
X24626Y4896D02*
X24763D01*
X23730Y4000D02*
X24626Y4896D01*
X24365Y17725D02*
Y18293D01*
X24763Y18531D02*
X24836Y18604D01*
X24836Y18853D02*
X24836Y18853D01*
X24365Y18293D02*
X24603Y18531D01*
X24836Y18853D02*
Y19477D01*
X24763Y19550D02*
X24836Y19477D01*
X24250Y19550D02*
X24763D01*
X25635Y17725D02*
Y18293D01*
X25164Y18989D02*
X25164Y18989D01*
X25237Y19550D02*
X25750D01*
X25164Y18989D02*
Y19477D01*
X24836Y18604D02*
Y18853D01*
X24603Y18531D02*
X24763D01*
X25164Y18604D02*
X25237Y18531D01*
X25397D01*
X25164Y18604D02*
Y18989D01*
X25164Y19477D02*
X25237Y19550D01*
X25397Y18531D02*
X25635Y18293D01*
X16414Y10300D02*
Y13000D01*
Y10300D02*
X17200D01*
X16086D02*
Y13000D01*
X15300Y10300D02*
X16086D01*
X16966Y6277D02*
Y9010D01*
X16499Y5811D02*
X16966Y6277D01*
X15534Y6358D02*
Y9010D01*
Y6358D02*
X16070Y5822D01*
Y4986D02*
Y5822D01*
X14980Y4000D02*
X15892Y4912D01*
X15997D01*
X16070Y4986D01*
X16487Y22965D02*
X17520D01*
X16647Y21081D02*
X16885Y20843D01*
Y20275D02*
Y20843D01*
X16414Y22892D02*
X16487Y22965D01*
X16414Y22278D02*
Y22584D01*
X16414Y22584D02*
Y22892D01*
Y22584D02*
X16414Y22584D01*
X16414Y21154D02*
X16487Y21081D01*
X16647D01*
X16414Y22278D02*
X16414Y22278D01*
X16414Y21154D02*
Y22278D01*
X16086Y22448D02*
X16086Y22448D01*
Y22414D02*
Y22448D01*
X16013Y22965D02*
X16086Y22892D01*
Y22448D02*
Y22892D01*
Y22414D02*
X16086Y22414D01*
X16013Y21081D02*
X16086Y21154D01*
Y22414D01*
X15852Y21081D02*
X16013D01*
X14980Y22965D02*
X16013D01*
X15615Y20843D02*
X15852Y21081D01*
X15615Y20275D02*
Y20843D01*
X16013Y18450D02*
X16086Y18523D01*
Y19396D01*
X16013Y19469D02*
X16086Y19396D01*
X15615Y18450D02*
X16013D01*
X15852Y19469D02*
X16013D01*
X16414Y18523D02*
X16487Y18450D01*
X16885D01*
X15615Y19707D02*
X15852Y19469D01*
X16885Y19707D02*
Y20275D01*
X16414Y19396D02*
X16487Y19469D01*
X16647D01*
X15615Y19707D02*
Y20275D01*
X16414Y18523D02*
Y19396D01*
X16647Y19469D02*
X16885Y19707D01*
X16647Y14919D02*
X16885Y15157D01*
Y15725D01*
X16487Y14919D02*
X16647D01*
X16414Y13000D02*
X17100D01*
X16414D02*
Y14846D01*
X16487Y14919D01*
X16086Y13000D02*
Y14846D01*
X16013Y14919D02*
X16086Y14846D01*
X15852Y14919D02*
X16013D01*
X15400Y13000D02*
X16086D01*
X15615Y15157D02*
Y15725D01*
Y15157D02*
X15852Y14919D01*
X15615Y16293D02*
X15852Y16531D01*
X16013D02*
X16086Y16604D01*
X16414D02*
X16487Y16531D01*
X16647D02*
X16885Y16293D01*
Y15725D02*
Y16293D01*
X16414Y16604D02*
Y17477D01*
X15615Y17550D02*
X16013D01*
X15615Y15725D02*
Y16293D01*
X16487Y17550D02*
X16885D01*
X15852Y16531D02*
X16013D01*
X16414Y17477D02*
X16487Y17550D01*
Y16531D02*
X16647D01*
X16013Y17550D02*
X16086Y17477D01*
Y16604D02*
Y17477D01*
D93*
X19000Y21060D02*
X20060D01*
X65000Y44000D02*
X68750D01*
X69500Y26500D02*
X70730D01*
X72960Y28730D01*
X19710Y42000D02*
X22750Y38960D01*
Y37750D02*
Y38960D01*
X12750Y42293D02*
X13043Y42000D01*
X12750Y42293D02*
Y44000D01*
X13043Y42000D02*
X19710D01*
X12750Y44000D02*
Y48000D01*
X22750Y35158D02*
X23043Y34865D01*
X24365D01*
X22750Y35158D02*
Y37750D01*
X20060Y34865D02*
X22457D01*
X22750Y35158D01*
X24365Y31607D02*
Y34865D01*
X20060Y32035D02*
Y34865D01*
Y21060D02*
Y22965D01*
X68000Y31250D02*
X69075D01*
X68000Y28000D02*
X68750D01*
D94*
X29045Y29355D02*
X31455D01*
X31500Y29310D01*
X29000Y29400D02*
X29045Y29355D01*
X30000Y35500D02*
X31054D01*
X29000Y34500D02*
X30000Y35500D01*
X29000Y29400D02*
Y34500D01*
D95*
X17520Y4000D02*
D03*
X63270D02*
D03*
X26270D02*
D03*
X52270D02*
D03*
X69270D02*
D03*
D96*
X14980D02*
D03*
X60730D02*
D03*
X23730D02*
D03*
X49730D02*
D03*
X66730D02*
D03*
D97*
X4250Y26270D02*
D03*
Y23730D02*
D03*
Y28810D02*
D03*
X31500Y29310D02*
D03*
Y24230D02*
D03*
Y26770D02*
D03*
D98*
X4250Y31350D02*
D03*
X31500Y31850D02*
D03*
D99*
X53670Y48000D02*
D03*
X63830D02*
D03*
X58750Y44500D02*
D03*
D100*
X72960Y28730D02*
D03*
D101*
Y31270D02*
D03*
X75500Y28730D02*
D03*
X78040D02*
D03*
X75500Y31270D02*
D03*
X78040D02*
D03*
D102*
X34850Y40725D02*
D03*
X10000Y35500D02*
D03*
X69000Y34000D02*
D03*
Y41000D02*
D03*
X51250Y39000D02*
D03*
X17500Y40500D02*
D03*
X15000Y39000D02*
D03*
X55500Y33750D02*
D03*
X56250Y33000D02*
D03*
X58250Y33750D02*
D03*
X42000Y33000D02*
D03*
X41500Y33750D02*
D03*
X70500Y35500D02*
D03*
Y38000D02*
D03*
X22750Y37750D02*
D03*
X29750Y37775D02*
D03*
X56250Y31500D02*
D03*
X57000Y30991D02*
D03*
X61250Y30750D02*
D03*
Y30000D02*
D03*
X63250Y30750D02*
D03*
X50750D02*
D03*
X53741D02*
D03*
X70750Y22250D02*
D03*
X70310Y17150D02*
D03*
X73000D02*
D03*
X73250Y15250D02*
D03*
X70310D02*
D03*
X67900D02*
D03*
X67000Y16500D02*
D03*
Y18500D02*
D03*
Y20500D02*
D03*
Y22500D02*
D03*
X66000Y14000D02*
D03*
X68750Y44000D02*
D03*
X37000Y35500D02*
D03*
X27500Y15500D02*
D03*
X23000D02*
D03*
X20060Y21060D02*
D03*
X10500Y21000D02*
D03*
X55000Y45000D02*
D03*
X50500Y46000D02*
D03*
X13500Y11500D02*
D03*
X19000D02*
D03*
X60000Y33000D02*
D03*
X65500Y30500D02*
D03*
X63000Y35500D02*
D03*
X64000D02*
D03*
X68000Y31250D02*
D03*
X64750D02*
D03*
Y32000D02*
D03*
X68000Y28000D02*
D03*
X70500Y28250D02*
D03*
D103*
X28975Y38700D02*
D03*
X24050D02*
D03*
X19500Y40750D02*
D03*
X23000Y40900D02*
D03*
X27600Y40875D02*
D03*
X57255Y34706D02*
D03*
X10500Y39750D02*
D03*
X3750Y38750D02*
D03*
X4250Y33000D02*
D03*
X7500Y30000D02*
D03*
Y33750D02*
D03*
X10250D02*
D03*
Y30500D02*
D03*
X72000Y41250D02*
D03*
X66750Y25358D02*
D03*
X72250Y10000D02*
D03*
X74000D02*
D03*
X76000D02*
D03*
X67000Y6750D02*
D03*
X69250Y1250D02*
D03*
X73750D02*
D03*
X77500D02*
D03*
X78750Y3750D02*
D03*
Y7500D02*
D03*
Y10000D02*
D03*
X79000Y14500D02*
D03*
Y15750D02*
D03*
Y17000D02*
D03*
Y18250D02*
D03*
X73116Y23750D02*
D03*
Y22250D02*
D03*
X70730Y24750D02*
D03*
X74095Y26500D02*
D03*
X77905Y26750D02*
D03*
X70500Y43060D02*
D03*
X75500Y37000D02*
D03*
Y33690D02*
D03*
X75750Y41750D02*
D03*
X70500Y40500D02*
D03*
X71250Y34310D02*
D03*
X74250Y32020D02*
D03*
X67250Y30500D02*
D03*
X67500Y32000D02*
D03*
X70500Y32250D02*
D03*
X67750Y35098D02*
D03*
X61690Y39750D02*
D03*
X63000Y36902D02*
D03*
X65250Y38500D02*
D03*
X62848Y40500D02*
D03*
X67750D02*
D03*
Y37000D02*
D03*
X68750Y43000D02*
D03*
X63530Y45207D02*
D03*
X62000D02*
D03*
X60250Y42250D02*
D03*
X56000Y43793D02*
D03*
X59250Y41250D02*
D03*
X52750Y35060D02*
D03*
X50500Y38000D02*
D03*
X51750Y37250D02*
D03*
X54620Y34500D02*
D03*
X59903Y30250D02*
D03*
X57500D02*
D03*
X49095Y30437D02*
D03*
X50250Y32104D02*
D03*
X45750Y32250D02*
D03*
Y35750D02*
D03*
X43250Y34500D02*
D03*
X50250Y34500D02*
D03*
X48000Y36750D02*
D03*
X40750Y36690D02*
D03*
X44000Y30500D02*
D03*
X42250Y32000D02*
D03*
X41750Y29400D02*
D03*
X35000Y31850D02*
D03*
X37500Y32000D02*
D03*
X36600Y34250D02*
D03*
X35000D02*
D03*
X32750Y29500D02*
D03*
X35500D02*
D03*
X39250D02*
D03*
Y35000D02*
D03*
Y36690D02*
D03*
X37500D02*
D03*
X26250Y45000D02*
D03*
X23750D02*
D03*
X27000Y47750D02*
D03*
X32000D02*
D03*
X50500D02*
D03*
X43750D02*
D03*
X37500D02*
D03*
X49875Y45225D02*
D03*
X43675Y45250D02*
D03*
X37175D02*
D03*
X50500Y41500D02*
D03*
X43750D02*
D03*
X37500D02*
D03*
X32750Y40500D02*
D03*
X29250Y36750D02*
D03*
X23775Y36500D02*
D03*
X27960Y33750D02*
D03*
X26250Y30050D02*
D03*
X23750Y30000D02*
D03*
X21250D02*
D03*
X23250Y33750D02*
D03*
X21250D02*
D03*
X18750Y30000D02*
D03*
X16250D02*
D03*
X13750D02*
D03*
Y33750D02*
D03*
X16250D02*
D03*
X18750D02*
D03*
X20060Y37990D02*
D03*
X19000Y46000D02*
D03*
X14000D02*
D03*
X10000Y47000D02*
D03*
X12760Y37137D02*
D03*
X13043Y41000D02*
D03*
X7121Y42000D02*
D03*
X7000Y38000D02*
D03*
X1000Y39000D02*
D03*
Y44000D02*
D03*
Y48121D02*
D03*
X3000Y50000D02*
D03*
X12200D02*
D03*
X17000D02*
D03*
X22235D02*
D03*
X27000D02*
D03*
X32000D02*
D03*
X37000D02*
D03*
X42000D02*
D03*
X47000D02*
D03*
X50000D02*
D03*
X53750D02*
D03*
X63750D02*
D03*
X67500D02*
D03*
X71250Y50020D02*
D03*
X76250Y50000D02*
D03*
X78750Y46250D02*
D03*
Y42500D02*
D03*
Y38750D02*
D03*
Y35000D02*
D03*
X35750Y26250D02*
D03*
X31750Y21500D02*
D03*
X28250Y18000D02*
D03*
X25000Y26250D02*
D03*
X27000D02*
D03*
X23000D02*
D03*
Y23250D02*
D03*
X26750Y16500D02*
D03*
X23000D02*
D03*
X26750Y6000D02*
D03*
X23000D02*
D03*
Y13000D02*
D03*
X27000D02*
D03*
X25017Y6721D02*
D03*
X16250Y7000D02*
D03*
D104*
X49500Y8000D02*
D03*
X47500Y27500D02*
D03*
X42500D02*
D03*
X55500Y25000D02*
D03*
Y27500D02*
D03*
X57500D02*
D03*
Y25000D02*
D03*
X9500Y13000D02*
D03*
X60000Y19000D02*
D03*
X64000D02*
D03*
X58500Y2500D02*
D03*
Y5000D02*
D03*
Y8500D02*
D03*
X60000Y1500D02*
D03*
X64000D02*
D03*
X56500D02*
D03*
X35000Y20000D02*
D03*
X37500Y22500D02*
D03*
Y20000D02*
D03*
Y17500D02*
D03*
X35000D02*
D03*
X32500D02*
D03*
X37500Y15000D02*
D03*
X35000D02*
D03*
X32500D02*
D03*
Y2500D02*
D03*
Y5000D02*
D03*
Y7500D02*
D03*
Y10000D02*
D03*
Y12500D02*
D03*
X35000Y2500D02*
D03*
Y5000D02*
D03*
Y7500D02*
D03*
Y10000D02*
D03*
Y12500D02*
D03*
X37500Y2500D02*
D03*
Y5000D02*
D03*
Y7500D02*
D03*
Y10000D02*
D03*
Y12500D02*
D03*
X40000D02*
D03*
Y10000D02*
D03*
Y7500D02*
D03*
Y5000D02*
D03*
Y2500D02*
D03*
X42500D02*
D03*
Y5000D02*
D03*
Y7500D02*
D03*
Y10000D02*
D03*
Y12500D02*
D03*
X60000Y22500D02*
D03*
X63250Y22750D02*
D03*
X60000Y25000D02*
D03*
X57500Y22500D02*
D03*
Y20000D02*
D03*
Y17500D02*
D03*
X55000Y20000D02*
D03*
X52500Y17500D02*
D03*
X50000D02*
D03*
X47500Y22500D02*
D03*
Y25000D02*
D03*
X45000Y27500D02*
D03*
X47500Y20000D02*
D03*
X45000D02*
D03*
Y22500D02*
D03*
Y25000D02*
D03*
X42500D02*
D03*
Y22500D02*
D03*
Y20000D02*
D03*
X54925Y17500D02*
D03*
X47500D02*
D03*
X45000D02*
D03*
X42500D02*
D03*
X52500Y8000D02*
D03*
X51000Y6000D02*
D03*
Y9500D02*
D03*
X50000Y14500D02*
D03*
X51000D02*
D03*
X52000Y14475D02*
D03*
Y12500D02*
D03*
X51000D02*
D03*
X50000D02*
D03*
Y16000D02*
D03*
X51000D02*
D03*
X52000D02*
D03*
Y11000D02*
D03*
X51000D02*
D03*
X50000D02*
D03*
M02*
