G04*
G04 #@! TF.GenerationSoftware,Altium Limited,Altium Designer,23.9.2 (47)*
G04*
G04 Layer_Color=255*
%FSLAX43Y43*%
%MOMM*%
G71*
G04*
G04 #@! TF.SameCoordinates,DD1DA4F9-BAAB-46B1-B849-2321CEA9ED03*
G04*
G04*
G04 #@! TF.FilePolarity,Positive*
G04*
G01*
G75*
%ADD21R,3.700X2.700*%
%ADD22R,0.800X2.200*%
%ADD23R,1.150X1.400*%
%ADD24R,2.460X2.310*%
%ADD25R,1.461X0.356*%
%ADD26R,0.640X2.340*%
%ADD27R,0.508X1.168*%
%ADD28R,1.194X0.305*%
%ADD29R,0.305X1.194*%
%ADD30R,0.530X1.250*%
%ADD31C,1.000*%
%ADD32R,0.660X0.620*%
%ADD33R,0.600X1.850*%
%ADD34R,1.800X1.300*%
%ADD35R,0.620X0.660*%
%ADD36R,0.550X0.550*%
%ADD37R,1.400X2.800*%
%ADD38R,2.370X1.710*%
%ADD39R,0.420X0.700*%
%ADD40R,1.300X0.700*%
%ADD41R,0.900X0.900*%
%ADD42R,0.980X3.700*%
%ADD43R,0.550X0.550*%
%ADD44R,0.700X1.300*%
%ADD45R,1.000X1.150*%
%ADD46R,1.400X3.000*%
%ADD47R,0.600X0.500*%
%ADD48R,1.150X1.000*%
%ADD49R,1.100X1.250*%
%ADD50R,0.950X0.650*%
%ADD51R,0.850X0.900*%
%ADD52R,0.900X1.400*%
%ADD53R,1.000X1.350*%
%ADD86C,6.000*%
%ADD95C,1.950*%
%ADD96R,1.950X1.950*%
%ADD97C,1.508*%
%ADD98R,1.508X1.508*%
%ADD99C,2.000*%
%ADD100R,1.500X1.500*%
%ADD101C,1.500*%
D21*
X76000Y19500D02*
D03*
D22*
X74095Y16630D02*
D03*
X75365D02*
D03*
X76635D02*
D03*
X77905D02*
D03*
X74095Y22370D02*
D03*
X75365D02*
D03*
X76635D02*
D03*
X77905D02*
D03*
D23*
X73550Y35900D02*
D03*
Y38100D02*
D03*
X71950D02*
D03*
Y35900D02*
D03*
D24*
X51000Y13500D02*
D03*
D25*
X53927Y15775D02*
D03*
Y15125D02*
D03*
Y14475D02*
D03*
Y13825D02*
D03*
Y13175D02*
D03*
Y12525D02*
D03*
Y11875D02*
D03*
Y11225D02*
D03*
X48073D02*
D03*
Y11875D02*
D03*
Y12525D02*
D03*
Y13175D02*
D03*
Y13825D02*
D03*
Y14475D02*
D03*
Y15125D02*
D03*
Y15775D02*
D03*
D26*
X20060Y32035D02*
D03*
X17520D02*
D03*
X14980D02*
D03*
X12440D02*
D03*
Y22965D02*
D03*
X14980D02*
D03*
X17520D02*
D03*
X20060D02*
D03*
D27*
X26905Y31607D02*
D03*
X25635D02*
D03*
X24365D02*
D03*
X23095D02*
D03*
Y24393D02*
D03*
X24365D02*
D03*
X25635D02*
D03*
X26905D02*
D03*
D28*
X69000Y34750D02*
D03*
Y35250D02*
D03*
Y35750D02*
D03*
Y36250D02*
D03*
Y36750D02*
D03*
Y37250D02*
D03*
Y37750D02*
D03*
Y38250D02*
D03*
Y38750D02*
D03*
Y39250D02*
D03*
Y39750D02*
D03*
Y40250D02*
D03*
X60500D02*
D03*
Y39750D02*
D03*
Y39250D02*
D03*
Y38750D02*
D03*
Y38250D02*
D03*
Y37750D02*
D03*
Y37250D02*
D03*
Y36750D02*
D03*
Y36250D02*
D03*
Y35750D02*
D03*
Y35250D02*
D03*
Y34750D02*
D03*
D29*
X67500Y41750D02*
D03*
X67000D02*
D03*
X66500D02*
D03*
X66000D02*
D03*
X65500D02*
D03*
X65000D02*
D03*
X64500D02*
D03*
X64000D02*
D03*
X63500D02*
D03*
X63000D02*
D03*
X62500D02*
D03*
X62000D02*
D03*
Y33250D02*
D03*
X62500D02*
D03*
X63000D02*
D03*
X63500D02*
D03*
X64000D02*
D03*
X64500D02*
D03*
X65000D02*
D03*
X65500D02*
D03*
X66000D02*
D03*
X66500D02*
D03*
X67000D02*
D03*
X67500D02*
D03*
D30*
X52905Y26650D02*
D03*
X51635D02*
D03*
X50365D02*
D03*
X49095D02*
D03*
X52905Y21350D02*
D03*
X51635D02*
D03*
X50365D02*
D03*
X49095D02*
D03*
D31*
X29000Y44000D02*
D03*
X76000Y14500D02*
D03*
X68750Y24500D02*
D03*
X72500Y8750D02*
D03*
X47250Y31750D02*
D03*
X60000Y14250D02*
D03*
Y23750D02*
D03*
X41500Y35000D02*
D03*
X43250Y33000D02*
D03*
X30250Y41750D02*
D03*
X17500Y37637D02*
D03*
X14990D02*
D03*
X54266Y29750D02*
D03*
X50250D02*
D03*
X45000Y12500D02*
D03*
X11250Y17477D02*
D03*
X71750Y23250D02*
D03*
X58000Y47000D02*
D03*
D32*
X54560Y21350D02*
D03*
X55440D02*
D03*
X71190Y16250D02*
D03*
X70310D02*
D03*
X75590Y26750D02*
D03*
X76470D02*
D03*
X58940Y34750D02*
D03*
X58060D02*
D03*
X68810Y33000D02*
D03*
X69690D02*
D03*
X72310Y40000D02*
D03*
X73190D02*
D03*
X73190Y34000D02*
D03*
X72310D02*
D03*
X11940Y13000D02*
D03*
X11060D02*
D03*
D33*
X16885Y15725D02*
D03*
X15615D02*
D03*
Y20275D02*
D03*
X16885D02*
D03*
X25635Y17725D02*
D03*
X24365D02*
D03*
Y22275D02*
D03*
X25635D02*
D03*
D34*
X10250Y28900D02*
D03*
Y26100D02*
D03*
X1750Y28900D02*
D03*
Y26100D02*
D03*
X37500Y29900D02*
D03*
Y27100D02*
D03*
X29000Y29400D02*
D03*
Y26600D02*
D03*
D35*
X70500Y38658D02*
D03*
Y39538D02*
D03*
X69750Y48810D02*
D03*
Y49690D02*
D03*
X3500Y20440D02*
D03*
Y19560D02*
D03*
X7000Y36060D02*
D03*
Y36940D02*
D03*
X35750Y35810D02*
D03*
Y36690D02*
D03*
X72250Y12440D02*
D03*
Y11560D02*
D03*
X77905Y25691D02*
D03*
Y24811D02*
D03*
X76635Y24816D02*
D03*
Y25696D02*
D03*
X71831Y25688D02*
D03*
Y24808D02*
D03*
X63500Y43060D02*
D03*
Y43940D02*
D03*
X62000Y43060D02*
D03*
Y43940D02*
D03*
X28250Y24190D02*
D03*
Y23310D02*
D03*
X24365Y34865D02*
D03*
Y35745D02*
D03*
X29500Y24190D02*
D03*
Y23310D02*
D03*
X19000Y21060D02*
D03*
Y20180D02*
D03*
X20060Y34865D02*
D03*
Y35745D02*
D03*
D36*
X69750Y46050D02*
D03*
Y46950D02*
D03*
X75365Y24801D02*
D03*
Y25701D02*
D03*
X72975Y24796D02*
D03*
Y25696D02*
D03*
X74095Y24792D02*
D03*
Y25692D02*
D03*
X51635Y31700D02*
D03*
Y30800D02*
D03*
X52905Y31700D02*
D03*
Y30800D02*
D03*
X66500Y31700D02*
D03*
Y30800D02*
D03*
X25750Y19550D02*
D03*
Y20450D02*
D03*
X26905Y34865D02*
D03*
Y35765D02*
D03*
X25635Y34865D02*
D03*
Y35765D02*
D03*
X24250Y19550D02*
D03*
Y20450D02*
D03*
X16885Y17550D02*
D03*
Y18450D02*
D03*
X14980Y34875D02*
D03*
Y35775D02*
D03*
X17500Y34875D02*
D03*
Y35775D02*
D03*
X15615Y17550D02*
D03*
Y18450D02*
D03*
D37*
X4200Y35500D02*
D03*
X1800D02*
D03*
X33454D02*
D03*
X31054D02*
D03*
D38*
X69000Y10600D02*
D03*
X63000D02*
D03*
D39*
X69975Y9500D02*
D03*
X69325D02*
D03*
X68675D02*
D03*
X68025D02*
D03*
Y12500D02*
D03*
X68675D02*
D03*
X69325D02*
D03*
X69975D02*
D03*
X63975Y9500D02*
D03*
X63325D02*
D03*
X62675D02*
D03*
X62025D02*
D03*
Y12500D02*
D03*
X62675D02*
D03*
X63325D02*
D03*
X63975D02*
D03*
D40*
X74000Y12650D02*
D03*
Y10850D02*
D03*
X76000Y12650D02*
D03*
Y10850D02*
D03*
X78000Y12650D02*
D03*
Y10850D02*
D03*
X56000Y16400D02*
D03*
Y14600D02*
D03*
D41*
X66000Y12575D02*
D03*
Y9425D02*
D03*
X60000Y12575D02*
D03*
Y9425D02*
D03*
D42*
X71935Y19500D02*
D03*
X69565D02*
D03*
D43*
X66000Y8000D02*
D03*
X66900D02*
D03*
X60000D02*
D03*
X60900D02*
D03*
X17000Y48000D02*
D03*
X17900D02*
D03*
X17000Y44000D02*
D03*
X17900D02*
D03*
X25450Y47000D02*
D03*
X24550D02*
D03*
X25450Y43000D02*
D03*
X24550D02*
D03*
X24450Y14500D02*
D03*
X23550D02*
D03*
X28585Y37500D02*
D03*
X27685D02*
D03*
X24050D02*
D03*
X24950D02*
D03*
X25550Y14500D02*
D03*
X26450D02*
D03*
D44*
X67900Y16500D02*
D03*
X66100D02*
D03*
X67900Y18500D02*
D03*
X66100D02*
D03*
X67900Y20500D02*
D03*
X66100D02*
D03*
X67900Y22500D02*
D03*
X66100D02*
D03*
D45*
X58000Y16175D02*
D03*
Y14825D02*
D03*
Y11022D02*
D03*
Y12372D02*
D03*
D46*
X62000Y16600D02*
D03*
Y21400D02*
D03*
D47*
X65000Y44000D02*
D03*
Y43000D02*
D03*
X68750Y27000D02*
D03*
Y28000D02*
D03*
D48*
X70425Y31250D02*
D03*
X69075D02*
D03*
D49*
X12750Y48000D02*
D03*
X15250D02*
D03*
X12750Y44000D02*
D03*
X15250D02*
D03*
D50*
X22235Y47050D02*
D03*
Y48950D02*
D03*
X19765Y48000D02*
D03*
X22235Y43050D02*
D03*
Y44950D02*
D03*
X19765Y44000D02*
D03*
D51*
X24225Y13000D02*
D03*
X25775D02*
D03*
D52*
X25000Y8200D02*
D03*
X24050Y10300D02*
D03*
X25950D02*
D03*
X16250Y8200D02*
D03*
X15300Y10300D02*
D03*
X17200D02*
D03*
D53*
X18900Y13000D02*
D03*
X17100D02*
D03*
X13600D02*
D03*
X15400D02*
D03*
D86*
X5000Y46000D02*
D03*
X75000Y46060D02*
D03*
Y5000D02*
D03*
X5000D02*
D03*
D95*
X17520Y4000D02*
D03*
X63270D02*
D03*
X26270D02*
D03*
X52270D02*
D03*
X69270D02*
D03*
D96*
X14980D02*
D03*
X60730D02*
D03*
X23730D02*
D03*
X49730D02*
D03*
X66730D02*
D03*
D97*
X4250Y26270D02*
D03*
Y23730D02*
D03*
Y28810D02*
D03*
X31500Y29310D02*
D03*
Y24230D02*
D03*
Y26770D02*
D03*
D98*
X4250Y31350D02*
D03*
X31500Y31850D02*
D03*
D99*
X53670Y48000D02*
D03*
X63830D02*
D03*
X58750Y44500D02*
D03*
D100*
X72960Y28730D02*
D03*
D101*
Y31270D02*
D03*
X75500Y28730D02*
D03*
X78040D02*
D03*
X75500Y31270D02*
D03*
X78040D02*
D03*
M02*
